<?xml version="1.0" encoding="utf-8" standalone="no"?>
<!DOCTYPE svg PUBLIC "-//W3C//DTD SVG 1.1//EN"
  "http://www.w3.org/Graphics/SVG/1.1/DTD/svg11.dtd">
<!-- Created with matplotlib (http://matplotlib.org/) -->
<svg height="328.545937pt" version="1.1" viewBox="0 0 488.611094 328.545937" width="488.611094pt" xmlns="http://www.w3.org/2000/svg" xmlns:xlink="http://www.w3.org/1999/xlink">
 <defs>
  <style type="text/css">
*{stroke-linecap:butt;stroke-linejoin:round;}
  </style>
 </defs>
 <g id="figure_1">
  <g id="patch_1">
   <path d="M 0 328.545937 
L 488.611094 328.545937 
L 488.611094 0 
L 0 0 
z
" style="fill:#ffffff;"/>
  </g>
  <g id="axes_1">
   <g id="patch_2">
    <path clip-path="url(#p876ac02ce4)" d="M 437.92349 157.199995 
Q 436.823559 149.252662 435.810066 141.929871 
" style="fill:none;stroke:#800000;stroke-linecap:round;stroke-width:0.563932;"/>
    <path clip-path="url(#p876ac02ce4)" d="M 434.377334 146.166293 
L 435.810066 141.929871 
L 438.339565 145.617911 
L 434.377334 146.166293 
z
" style="fill:#800000;stroke:#800000;stroke-linecap:round;stroke-width:0.563932;"/>
   </g>
   <g id="patch_3">
    <path clip-path="url(#p876ac02ce4)" d="M 437.92349 157.199995 
Q 432.719892 138.562629 427.823985 121.027302 
" style="fill:none;stroke:#d30000;stroke-linecap:round;stroke-width:1.023393;"/>
    <path clip-path="url(#p876ac02ce4)" d="M 426.973329 125.41779 
L 427.823985 121.027302 
L 430.825982 124.34212 
L 426.973329 125.41779 
z
" style="fill:#d30000;stroke:#d30000;stroke-linecap:round;stroke-width:1.023393;"/>
   </g>
   <g id="patch_4">
    <path clip-path="url(#p876ac02ce4)" d="M 437.92349 157.199995 
Q 326.973258 101.103545 216.377326 45.186229 
" style="fill:none;stroke:#f80000;stroke-linecap:round;stroke-width:0.355098;"/>
    <path clip-path="url(#p876ac02ce4)" d="M 219.044588 48.775896 
L 216.377326 45.186229 
L 220.849417 45.206219 
L 219.044588 48.775896 
z
" style="fill:#f80000;stroke:#f80000;stroke-linecap:round;stroke-width:0.355098;"/>
   </g>
   <g id="patch_5">
    <path clip-path="url(#p876ac02ce4)" d="M 425.868946 114.025076 
Q 420.354545 106.610511 415.143159 99.603372 
" style="fill:none;stroke:#800000;stroke-linecap:round;stroke-width:0.454149;"/>
    <path clip-path="url(#p876ac02ce4)" d="M 415.92543 104.006559 
L 415.143159 99.603372 
L 419.135071 101.619467 
L 415.92543 104.006559 
z
" style="fill:#800000;stroke:#800000;stroke-linecap:round;stroke-width:0.454149;"/>
   </g>
   <g id="patch_6">
    <path clip-path="url(#p876ac02ce4)" d="M 425.868946 114.025076 
Q 410.680575 97.601644 396.123256 81.86058 
" style="fill:none;stroke:#800000;stroke-linecap:round;stroke-width:0.831314;"/>
    <path clip-path="url(#p876ac02ce4)" d="M 397.37076 86.155197 
L 396.123256 81.86058 
L 400.307452 83.439347 
L 397.37076 86.155197 
z
" style="fill:#800000;stroke:#800000;stroke-linecap:round;stroke-width:0.831314;"/>
   </g>
   <g id="patch_7">
    <path clip-path="url(#p876ac02ce4)" d="M 425.868946 114.025076 
Q 398.719919 89.954982 374.080639 68.110008 
" style="fill:none;stroke:#800000;stroke-linecap:round;stroke-width:3;"/>
    <path clip-path="url(#p876ac02ce4)" d="M 375.746883 72.260145 
L 374.080639 68.110008 
L 378.400495 69.267096 
L 375.746883 72.260145 
z
" style="fill:#800000;stroke:#800000;stroke-linecap:round;stroke-width:3;"/>
   </g>
   <g id="patch_8">
    <path clip-path="url(#p876ac02ce4)" d="M 425.868946 114.025076 
Q 384.892255 83.930506 345.122794 54.722563 
" style="fill:none;stroke:#800000;stroke-linecap:round;stroke-width:1.339704;"/>
    <path clip-path="url(#p876ac02ce4)" d="M 347.162846 58.702285 
L 345.122794 54.722563 
L 349.530603 55.478354 
L 347.162846 58.702285 
z
" style="fill:#800000;stroke:#800000;stroke-linecap:round;stroke-width:1.339704;"/>
   </g>
   <g id="patch_9">
    <path clip-path="url(#p876ac02ce4)" d="M 425.868946 114.025076 
Q 369.680752 79.730577 314.135429 45.828454 
" style="fill:none;stroke:#800000;stroke-linecap:round;stroke-width:0.673643;"/>
    <path clip-path="url(#p876ac02ce4)" d="M 316.507757 49.619504 
L 314.135429 45.828454 
L 318.591666 46.205222 
L 316.507757 49.619504 
z
" style="fill:#800000;stroke:#800000;stroke-linecap:round;stroke-width:0.673643;"/>
   </g>
   <g id="patch_10">
    <path clip-path="url(#p876ac02ce4)" d="M 425.868946 114.025076 
Q 321.119816 79.103525 218.295587 44.823703 
" style="fill:none;stroke:#d00000;stroke-linecap:round;stroke-width:1.814841;"/>
    <path clip-path="url(#p876ac02ce4)" d="M 221.457724 47.986122 
L 218.295587 44.823703 
L 222.722804 44.191445 
L 221.457724 47.986122 
z
" style="fill:#d00000;stroke:#d00000;stroke-linecap:round;stroke-width:1.814841;"/>
   </g>
   <g id="patch_11">
    <path clip-path="url(#p876ac02ce4)" d="M 425.868946 114.025076 
Q 305.818962 82.887172 186.472734 51.931804 
" style="fill:none;stroke:#800000;stroke-linecap:round;stroke-width:0.650288;"/>
    <path clip-path="url(#p876ac02ce4)" d="M 189.84248 54.872011 
L 186.472734 51.931804 
L 190.846747 51.000132 
L 189.84248 54.872011 
z
" style="fill:#800000;stroke:#800000;stroke-linecap:round;stroke-width:0.650288;"/>
   </g>
   <g id="patch_12">
    <path clip-path="url(#p876ac02ce4)" d="M 425.868946 114.025076 
Q 291.859695 88.4969 158.250449 63.044923 
" style="fill:none;stroke:#ae0000;stroke-linecap:round;stroke-width:0.364209;"/>
    <path clip-path="url(#p876ac02ce4)" d="M 161.805528 65.758116 
L 158.250449 63.044923 
L 162.55405 61.828775 
L 161.805528 65.758116 
z
" style="fill:#ae0000;stroke:#ae0000;stroke-linecap:round;stroke-width:0.364209;"/>
   </g>
   <g id="patch_13">
    <path clip-path="url(#p876ac02ce4)" d="M 425.868946 114.025076 
Q 279.717973 95.733477 135.581222 77.693968 
" style="fill:none;stroke:#800000;stroke-linecap:round;stroke-width:1.815629;"/>
    <path clip-path="url(#p876ac02ce4)" d="M 139.301884 80.175233 
L 135.581222 77.693968 
L 139.798631 76.206197 
L 139.301884 80.175233 
z
" style="fill:#800000;stroke:#800000;stroke-linecap:round;stroke-width:1.815629;"/>
   </g>
   <g id="patch_14">
    <path clip-path="url(#p876ac02ce4)" d="M 425.868946 114.025076 
Q 269.809618 104.343091 115.403015 94.763642 
" style="fill:none;stroke:#800000;stroke-linecap:round;stroke-width:1.481085;"/>
    <path clip-path="url(#p876ac02ce4)" d="M 119.271496 97.007489 
L 115.403015 94.763642 
L 119.519182 93.015165 
L 119.271496 97.007489 
z
" style="fill:#800000;stroke:#800000;stroke-linecap:round;stroke-width:1.481085;"/>
   </g>
   <g id="patch_15">
    <path clip-path="url(#p876ac02ce4)" d="M 425.868946 114.025076 
Q 262.473003 114.025069 99.773826 114.025062 
" style="fill:none;stroke:#9c0000;stroke-linecap:round;stroke-width:0.623207;"/>
    <path clip-path="url(#p876ac02ce4)" d="M 103.773826 116.025062 
L 99.773826 114.025062 
L 103.773826 112.025062 
L 103.773826 116.025062 
z
" style="fill:#9c0000;stroke:#9c0000;stroke-linecap:round;stroke-width:0.623207;"/>
   </g>
   <g id="patch_16">
    <path clip-path="url(#p876ac02ce4)" d="M 425.868946 114.025076 
Q 429.178603 121.813123 432.277849 129.106047 
" style="fill:none;stroke:#800000;stroke-linecap:round;stroke-width:0.48118;"/>
    <path clip-path="url(#p876ac02ce4)" d="M 432.554076 124.64245 
L 432.277849 129.106047 
L 428.872708 126.206907 
L 432.554076 124.64245 
z
" style="fill:#800000;stroke:#800000;stroke-linecap:round;stroke-width:0.48118;"/>
   </g>
   <g id="patch_17">
    <path clip-path="url(#p876ac02ce4)" d="M 425.868946 114.025076 
Q 256.422366 135.23225 88.136667 156.294134 
" style="fill:none;stroke:#800000;stroke-linecap:round;stroke-width:1.046423;"/>
    <path clip-path="url(#p876ac02ce4)" d="M 92.354076 157.781905 
L 88.136667 156.294134 
L 91.857329 153.81287 
L 92.354076 157.781905 
z
" style="fill:#800000;stroke:#800000;stroke-linecap:round;stroke-width:1.046423;"/>
   </g>
   <g id="patch_18">
    <path clip-path="url(#p876ac02ce4)" d="M 425.868946 114.025076 
Q 257.910133 146.020494 90.304638 177.948606 
" style="fill:none;stroke:#800000;stroke-linecap:round;stroke-width:0.3217;"/>
    <path clip-path="url(#p876ac02ce4)" d="M 94.608239 179.164754 
L 90.304638 177.948606 
L 93.859717 175.235414 
L 94.608239 179.164754 
z
" style="fill:#800000;stroke:#800000;stroke-linecap:round;stroke-width:0.3217;"/>
   </g>
   <g id="patch_19">
    <path clip-path="url(#p876ac02ce4)" d="M 425.868946 114.025076 
Q 262.37394 156.431513 100.880588 198.318772 
" style="fill:none;stroke:#800000;stroke-linecap:round;stroke-width:1.849576;"/>
    <path clip-path="url(#p876ac02ce4)" d="M 105.2546 199.250445 
L 100.880588 198.318772 
L 104.250334 195.378566 
L 105.2546 199.250445 
z
" style="fill:#800000;stroke:#800000;stroke-linecap:round;stroke-width:1.849576;"/>
   </g>
   <g id="patch_20">
    <path clip-path="url(#p876ac02ce4)" d="M 425.868946 114.025076 
Q 269.657873 166.103142 113.783928 218.068815 
" style="fill:none;stroke:#800000;stroke-linecap:round;stroke-width:0.317852;"/>
    <path clip-path="url(#p876ac02ce4)" d="M 118.211145 218.701074 
L 113.783928 218.068815 
L 116.946065 214.906397 
L 118.211145 218.701074 
z
" style="fill:#800000;stroke:#800000;stroke-linecap:round;stroke-width:0.317852;"/>
   </g>
   <g id="patch_21">
    <path clip-path="url(#p876ac02ce4)" d="M 425.868946 114.025076 
Q 279.508534 174.698923 134.616317 234.764128 
" style="fill:none;stroke:#800000;stroke-linecap:round;stroke-width:1.42156;"/>
    <path clip-path="url(#p876ac02ce4)" d="M 139.077293 235.079869 
L 134.616317 234.764128 
L 137.545495 231.384792 
L 139.077293 235.079869 
z
" style="fill:#800000;stroke:#800000;stroke-linecap:round;stroke-width:1.42156;"/>
   </g>
   <g id="patch_22">
    <path clip-path="url(#p876ac02ce4)" d="M 425.868946 114.025076 
Q 291.583714 181.919693 158.186465 249.365346 
" style="fill:none;stroke:#820000;stroke-linecap:round;stroke-width:0.889981;"/>
    <path clip-path="url(#p876ac02ce4)" d="M 162.658556 249.345356 
L 158.186465 249.365346 
L 160.853727 245.775679 
L 162.658556 249.345356 
z
" style="fill:#820000;stroke:#820000;stroke-linecap:round;stroke-width:0.889981;"/>
   </g>
   <g id="patch_23">
    <path clip-path="url(#p876ac02ce4)" d="M 425.868946 114.025076 
Q 305.469827 187.510752 185.436108 260.773405 
" style="fill:none;stroke:#800000;stroke-linecap:round;stroke-width:0.382891;"/>
    <path clip-path="url(#p876ac02ce4)" d="M 189.892345 260.396637 
L 185.436108 260.773405 
L 187.808436 256.982355 
L 189.892345 260.396637 
z
" style="fill:#800000;stroke:#800000;stroke-linecap:round;stroke-width:0.382891;"/>
   </g>
   <g id="patch_24">
    <path clip-path="url(#p876ac02ce4)" d="M 425.868946 114.025076 
Q 320.682867 191.277048 215.879555 268.247904 
" style="fill:none;stroke:#800000;stroke-linecap:round;stroke-width:0.424771;"/>
    <path clip-path="url(#p876ac02ce4)" d="M 220.287364 267.492113 
L 215.879555 268.247904 
L 217.919608 264.268182 
L 220.287364 267.492113 
z
" style="fill:#800000;stroke:#800000;stroke-linecap:round;stroke-width:0.424771;"/>
   </g>
   <g id="patch_25">
    <path clip-path="url(#p876ac02ce4)" d="M 425.868946 114.025076 
Q 336.694754 193.086163 248.708546 271.093994 
" style="fill:none;stroke:#800000;stroke-linecap:round;stroke-width:1.420043;"/>
    <path clip-path="url(#p876ac02ce4)" d="M 253.028401 269.936907 
L 248.708546 271.093994 
L 250.374789 266.943858 
L 253.028401 269.936907 
z
" style="fill:#800000;stroke:#800000;stroke-linecap:round;stroke-width:1.420043;"/>
   </g>
   <g id="patch_26">
    <path clip-path="url(#p876ac02ce4)" d="M 425.868946 114.025076 
Q 352.954736 192.868388 280.660468 271.041348 
" style="fill:none;stroke:#800000;stroke-linecap:round;stroke-width:0.816676;"/>
    <path clip-path="url(#p876ac02ce4)" d="M 284.844663 269.46258 
L 280.660468 271.041348 
L 281.907971 266.746731 
L 284.844663 269.46258 
z
" style="fill:#800000;stroke:#800000;stroke-linecap:round;stroke-width:0.816676;"/>
   </g>
   <g id="patch_27">
    <path clip-path="url(#p876ac02ce4)" d="M 425.868946 114.025076 
Q 368.89385 190.632809 312.282089 266.752009 
" style="fill:none;stroke:#820000;stroke-linecap:round;stroke-width:0.544556;"/>
    <path clip-path="url(#p876ac02ce4)" d="M 316.274 264.735914 
L 312.282089 266.752009 
L 313.064359 262.348823 
L 316.274 264.735914 
z
" style="fill:#820000;stroke:#820000;stroke-linecap:round;stroke-width:0.544556;"/>
   </g>
   <g id="patch_28">
    <path clip-path="url(#p876ac02ce4)" d="M 425.868946 114.025076 
Q 383.958228 186.45675 342.474273 258.150875 
" style="fill:none;stroke:#a60000;stroke-linecap:round;stroke-width:0.762158;"/>
    <path clip-path="url(#p876ac02ce4)" d="M 346.208675 255.690338 
L 342.474273 258.150875 
L 342.746485 253.687031 
L 346.208675 255.690338 
z
" style="fill:#a60000;stroke:#a60000;stroke-linecap:round;stroke-width:0.762158;"/>
   </g>
   <g id="patch_29">
    <path clip-path="url(#p876ac02ce4)" d="M 425.868946 114.025076 
Q 397.626524 180.483134 369.51616 246.630441 
" style="fill:none;stroke:#a80000;stroke-linecap:round;stroke-width:0.302001;"/>
    <path clip-path="url(#p876ac02ce4)" d="M 372.921301 243.7313 
L 369.51616 246.630441 
L 369.239932 242.166844 
L 372.921301 243.7313 
z
" style="fill:#a80000;stroke:#a80000;stroke-linecap:round;stroke-width:0.302001;"/>
   </g>
   <g id="patch_30">
    <path clip-path="url(#p876ac02ce4)" d="M 425.868946 114.025076 
Q 409.424792 172.921927 393.24777 230.862005 
" style="fill:none;stroke:#e60000;stroke-linecap:round;stroke-width:0.888492;"/>
    <path clip-path="url(#p876ac02ce4)" d="M 396.249767 227.547188 
L 393.24777 230.862005 
L 392.397114 226.471517 
L 396.249767 227.547188 
z
" style="fill:#e60000;stroke:#e60000;stroke-linecap:round;stroke-width:0.888492;"/>
   </g>
   <g id="patch_31">
    <path clip-path="url(#p876ac02ce4)" d="M 425.868946 114.025076 
Q 337.233455 77.281152 250.83221 41.463437 
" style="fill:none;stroke:#b00000;stroke-linecap:round;stroke-width:2.163279;"/>
    <path clip-path="url(#p876ac02ce4)" d="M 253.761389 44.842773 
L 250.83221 41.463437 
L 255.293186 41.147696 
L 253.761389 44.842773 
z
" style="fill:#b00000;stroke:#b00000;stroke-linecap:round;stroke-width:2.163279;"/>
   </g>
   <g id="patch_32">
    <path clip-path="url(#p876ac02ce4)" d="M 425.868946 114.025076 
Q 257.959699 124.442235 91.136434 134.792018 
" style="fill:none;stroke:#e80000;stroke-linecap:round;stroke-width:0.9732;"/>
    <path clip-path="url(#p876ac02ce4)" d="M 95.252601 136.540495 
L 91.136434 134.792018 
L 95.004915 132.548171 
L 95.252601 136.540495 
z
" style="fill:#e80000;stroke:#e80000;stroke-linecap:round;stroke-width:0.9732;"/>
   </g>
   <g id="patch_33">
    <path clip-path="url(#p876ac02ce4)" d="M 425.868946 114.025076 
Q 418.946813 164.03952 412.131742 213.280411 
" style="fill:none;stroke:#800000;stroke-linecap:round;stroke-width:0.698482;"/>
    <path clip-path="url(#p876ac02ce4)" d="M 414.661241 209.592371 
L 412.131742 213.280411 
L 410.69901 209.043988 
L 414.661241 209.592371 
z
" style="fill:#800000;stroke:#800000;stroke-linecap:round;stroke-width:0.698482;"/>
   </g>
   <g id="patch_34">
    <path clip-path="url(#p876ac02ce4)" d="M 425.868946 114.025076 
Q 353.607008 77.489434 282.058584 41.314545 
" style="fill:none;stroke:#bc0000;stroke-linecap:round;stroke-width:0.715119;"/>
    <path clip-path="url(#p876ac02ce4)" d="M 284.725847 44.904213 
L 282.058584 41.314545 
L 286.530676 41.334536 
L 284.725847 44.904213 
z
" style="fill:#bc0000;stroke:#bc0000;stroke-linecap:round;stroke-width:0.715119;"/>
   </g>
   <g id="patch_35">
    <path clip-path="url(#p876ac02ce4)" d="M 425.868946 114.025076 
Q 425.868946 154.139227 425.868946 193.692141 
" style="fill:none;stroke:#ff2525;stroke-linecap:round;stroke-width:0.501986;"/>
    <path clip-path="url(#p876ac02ce4)" d="M 427.868946 189.692141 
L 425.868946 193.692141 
L 423.868946 189.692141 
L 427.868946 189.692141 
z
" style="fill:#ff2525;stroke:#ff2525;stroke-linecap:round;stroke-width:0.501986;"/>
   </g>
   <g id="patch_36">
    <path clip-path="url(#p876ac02ce4)" d="M 425.868946 114.025076 
Q 429.956909 143.56183 433.987774 172.68604 
" style="fill:none;stroke:#800000;stroke-linecap:round;stroke-width:0.372508;"/>
    <path clip-path="url(#p876ac02ce4)" d="M 435.420506 168.449618 
L 433.987774 172.68604 
L 431.458275 168.998 
L 435.420506 168.449618 
z
" style="fill:#800000;stroke:#800000;stroke-linecap:round;stroke-width:0.372508;"/>
   </g>
   <g id="patch_37">
    <path clip-path="url(#p876ac02ce4)" d="M 275.882142 38.191736 
Q 262.47328 38.191736 249.411817 38.191736 
" style="fill:none;stroke:#e20000;stroke-linecap:round;stroke-width:0.310723;"/>
    <path clip-path="url(#p876ac02ce4)" d="M 253.411817 40.191736 
L 249.411817 38.191736 
L 253.411817 36.191736 
L 253.411817 40.191736 
z
" style="fill:#e20000;stroke:#e20000;stroke-linecap:round;stroke-width:0.310723;"/>
   </g>
   <g id="patch_38">
    <path clip-path="url(#p876ac02ce4)" d="M 275.882142 38.191736 
Q 348.14408 74.727377 419.43724 110.773205 
" style="fill:none;stroke:#c20000;stroke-linecap:round;stroke-width:0.970957;"/>
    <path clip-path="url(#p876ac02ce4)" d="M 416.769978 107.183538 
L 419.43724 110.773205 
L 414.965149 110.753215 
L 416.769978 107.183538 
z
" style="fill:#c20000;stroke:#c20000;stroke-linecap:round;stroke-width:0.970957;"/>
   </g>
   <g id="patch_39">
    <path clip-path="url(#p876ac02ce4)" d="M 242.940053 38.191736 
Q 331.575544 74.93566 419.104142 111.22072 
" style="fill:none;stroke:#b00000;stroke-linecap:round;stroke-width:1.071734;"/>
    <path clip-path="url(#p876ac02ce4)" d="M 416.174964 107.841384 
L 419.104142 111.22072 
L 414.643166 111.536461 
L 416.174964 107.841384 
z
" style="fill:#b00000;stroke:#b00000;stroke-linecap:round;stroke-width:1.071734;"/>
   </g>
   <g id="patch_40">
    <path clip-path="url(#p876ac02ce4)" d="M 83.93821 135.238599 
Q 251.847457 124.821441 418.742248 114.467219 
" style="fill:none;stroke:#8a0000;stroke-linecap:round;stroke-width:0.909102;"/>
    <path clip-path="url(#p876ac02ce4)" d="M 414.626081 112.718743 
L 418.742248 114.467219 
L 414.873767 116.711067 
L 414.626081 112.718743 
z
" style="fill:#8a0000;stroke:#8a0000;stroke-linecap:round;stroke-width:0.909102;"/>
   </g>
   <g id="patch_41">
    <path clip-path="url(#p876ac02ce4)" d="M 242.940083 276.208264 
Q 324.984571 187.492197 406.704461 99.127121 
" style="fill:none;stroke:#800000;stroke-linecap:round;stroke-width:0.427606;"/>
    <path clip-path="url(#p876ac02ce4)" d="M 402.520266 100.705889 
L 406.704461 99.127121 
L 405.456959 103.421738 
L 402.520266 100.705889 
z
" style="fill:#800000;stroke:#800000;stroke-linecap:round;stroke-width:0.427606;"/>
   </g>
   <g id="PathCollection_1">
    <defs>
     <path d="M 0 -6.123724 
L -5.303301 -3.061862 
L -5.303301 3.061862 
L -0 6.123724 
L 5.303301 3.061862 
L 5.303301 -3.061862 
z
" id="mc911fc640e" style="stroke:#ffffff;"/>
    </defs>
    <g clip-path="url(#p876ac02ce4)">
     <use style="fill:#ffffff;stroke:#ffffff;" x="437.92349" xlink:href="#mc911fc640e" y="157.199995"/>
     <use style="fill:#ffffff;stroke:#ffffff;" x="434.883977" xlink:href="#mc911fc640e" y="135.238601"/>
     <use style="fill:#ffffff;stroke:#ffffff;" x="425.868946" xlink:href="#mc911fc640e" y="114.025076"/>
     <use style="fill:#ffffff;stroke:#ffffff;" x="411.185387" xlink:href="#mc911fc640e" y="94.281822"/>
     <use style="fill:#ffffff;stroke:#ffffff;" x="391.333344" xlink:href="#mc911fc640e" y="76.681171"/>
     <use style="fill:#ffffff;stroke:#ffffff;" x="366.988853" xlink:href="#mc911fc640e" y="61.822491"/>
     <use style="fill:#ffffff;stroke:#ffffff;" x="338.980914" xlink:href="#mc911fc640e" y="50.211774"/>
     <use style="fill:#ffffff;stroke:#ffffff;" x="308.263329" xlink:href="#mc911fc640e" y="42.244414"/>
     <use style="fill:#ffffff;stroke:#ffffff;" x="275.882142" xlink:href="#mc911fc640e" y="38.191736"/>
     <use style="fill:#ffffff;stroke:#ffffff;" x="242.940053" xlink:href="#mc911fc640e" y="38.191736"/>
     <use style="fill:#ffffff;stroke:#ffffff;" x="210.558864" xlink:href="#mc911fc640e" y="42.244414"/>
     <use style="fill:#ffffff;stroke:#ffffff;" x="179.841279" xlink:href="#mc911fc640e" y="50.211774"/>
     <use style="fill:#ffffff;stroke:#ffffff;" x="151.833335" xlink:href="#mc911fc640e" y="61.822491"/>
     <use style="fill:#ffffff;stroke:#ffffff;" x="127.488854" xlink:href="#mc911fc640e" y="76.681164"/>
     <use style="fill:#ffffff;stroke:#ffffff;" x="107.63679" xlink:href="#mc911fc640e" y="94.281822"/>
     <use style="fill:#ffffff;stroke:#ffffff;" x="92.953252" xlink:href="#mc911fc640e" y="114.025062"/>
     <use style="fill:#ffffff;stroke:#ffffff;" x="83.93821" xlink:href="#mc911fc640e" y="135.238599"/>
     <use style="fill:#ffffff;stroke:#ffffff;" x="80.898697" xlink:href="#mc911fc640e" y="157.200006"/>
     <use style="fill:#ffffff;stroke:#ffffff;" x="83.93821" xlink:href="#mc911fc640e" y="179.161383"/>
     <use style="fill:#ffffff;stroke:#ffffff;" x="92.953241" xlink:href="#mc911fc640e" y="200.374924"/>
     <use style="fill:#ffffff;stroke:#ffffff;" x="107.63679" xlink:href="#mc911fc640e" y="220.118164"/>
     <use style="fill:#ffffff;stroke:#ffffff;" x="127.488843" xlink:href="#mc911fc640e" y="237.718829"/>
     <use style="fill:#ffffff;stroke:#ffffff;" x="151.833324" xlink:href="#mc911fc640e" y="252.577495"/>
     <use style="fill:#ffffff;stroke:#ffffff;" x="179.841268" xlink:href="#mc911fc640e" y="264.188219"/>
     <use style="fill:#ffffff;stroke:#ffffff;" x="210.558874" xlink:href="#mc911fc640e" y="272.155579"/>
     <use style="fill:#ffffff;stroke:#ffffff;" x="242.940083" xlink:href="#mc911fc640e" y="276.208264"/>
     <use style="fill:#ffffff;stroke:#ffffff;" x="275.882108" xlink:href="#mc911fc640e" y="276.208264"/>
     <use style="fill:#ffffff;stroke:#ffffff;" x="308.263318" xlink:href="#mc911fc640e" y="272.155579"/>
     <use style="fill:#ffffff;stroke:#ffffff;" x="338.980919" xlink:href="#mc911fc640e" y="264.188219"/>
     <use style="fill:#ffffff;stroke:#ffffff;" x="366.988863" xlink:href="#mc911fc640e" y="252.577495"/>
     <use style="fill:#ffffff;stroke:#ffffff;" x="391.333323" xlink:href="#mc911fc640e" y="237.718843"/>
     <use style="fill:#ffffff;stroke:#ffffff;" x="411.185376" xlink:href="#mc911fc640e" y="220.118185"/>
     <use style="fill:#ffffff;stroke:#ffffff;" x="425.868946" xlink:href="#mc911fc640e" y="200.37492"/>
     <use style="fill:#ffffff;stroke:#ffffff;" x="434.883977" xlink:href="#mc911fc640e" y="179.161381"/>
    </g>
   </g>
   <g id="text_1">
    <g clip-path="url(#p876ac02ce4)">
     <!-- India -->
     <defs>
      <path d="M 9.8125 72.90625 
L 19.671875 72.90625 
L 19.671875 0 
L 9.8125 0 
z
" id="DejaVuSans-49"/>
      <path d="M 54.890625 33.015625 
L 54.890625 0 
L 45.90625 0 
L 45.90625 32.71875 
Q 45.90625 40.484375 42.875 44.328125 
Q 39.84375 48.1875 33.796875 48.1875 
Q 26.515625 48.1875 22.3125 43.546875 
Q 18.109375 38.921875 18.109375 30.90625 
L 18.109375 0 
L 9.078125 0 
L 9.078125 54.6875 
L 18.109375 54.6875 
L 18.109375 46.1875 
Q 21.34375 51.125 25.703125 53.5625 
Q 30.078125 56 35.796875 56 
Q 45.21875 56 50.046875 50.171875 
Q 54.890625 44.34375 54.890625 33.015625 
z
" id="DejaVuSans-6e"/>
      <path d="M 45.40625 46.390625 
L 45.40625 75.984375 
L 54.390625 75.984375 
L 54.390625 0 
L 45.40625 0 
L 45.40625 8.203125 
Q 42.578125 3.328125 38.25 0.953125 
Q 33.9375 -1.421875 27.875 -1.421875 
Q 17.96875 -1.421875 11.734375 6.484375 
Q 5.515625 14.40625 5.515625 27.296875 
Q 5.515625 40.1875 11.734375 48.09375 
Q 17.96875 56 27.875 56 
Q 33.9375 56 38.25 53.625 
Q 42.578125 51.265625 45.40625 46.390625 
z
M 14.796875 27.296875 
Q 14.796875 17.390625 18.875 11.75 
Q 22.953125 6.109375 30.078125 6.109375 
Q 37.203125 6.109375 41.296875 11.75 
Q 45.40625 17.390625 45.40625 27.296875 
Q 45.40625 37.203125 41.296875 42.84375 
Q 37.203125 48.484375 30.078125 48.484375 
Q 22.953125 48.484375 18.875 42.84375 
Q 14.796875 37.203125 14.796875 27.296875 
z
" id="DejaVuSans-64"/>
      <path d="M 9.421875 54.6875 
L 18.40625 54.6875 
L 18.40625 0 
L 9.421875 0 
z
M 9.421875 75.984375 
L 18.40625 75.984375 
L 18.40625 64.59375 
L 9.421875 64.59375 
z
" id="DejaVuSans-69"/>
      <path d="M 34.28125 27.484375 
Q 23.390625 27.484375 19.1875 25 
Q 14.984375 22.515625 14.984375 16.5 
Q 14.984375 11.71875 18.140625 8.90625 
Q 21.296875 6.109375 26.703125 6.109375 
Q 34.1875 6.109375 38.703125 11.40625 
Q 43.21875 16.703125 43.21875 25.484375 
L 43.21875 27.484375 
z
M 52.203125 31.203125 
L 52.203125 0 
L 43.21875 0 
L 43.21875 8.296875 
Q 40.140625 3.328125 35.546875 0.953125 
Q 30.953125 -1.421875 24.3125 -1.421875 
Q 15.921875 -1.421875 10.953125 3.296875 
Q 6 8.015625 6 15.921875 
Q 6 25.140625 12.171875 29.828125 
Q 18.359375 34.515625 30.609375 34.515625 
L 43.21875 34.515625 
L 43.21875 35.40625 
Q 43.21875 41.609375 39.140625 45 
Q 35.0625 48.390625 27.6875 48.390625 
Q 23 48.390625 18.546875 47.265625 
Q 14.109375 46.140625 10.015625 43.890625 
L 10.015625 52.203125 
Q 14.9375 54.109375 19.578125 55.046875 
Q 24.21875 56 28.609375 56 
Q 40.484375 56 46.34375 49.84375 
Q 52.203125 43.703125 52.203125 31.203125 
z
" id="DejaVuSans-61"/>
     </defs>
     <g transform="translate(429.333725 159.131558)scale(0.07 -0.07)">
      <use xlink:href="#DejaVuSans-49"/>
      <use x="29.492188" xlink:href="#DejaVuSans-6e"/>
      <use x="92.871094" xlink:href="#DejaVuSans-64"/>
      <use x="156.347656" xlink:href="#DejaVuSans-69"/>
      <use x="184.130859" xlink:href="#DejaVuSans-61"/>
     </g>
    </g>
   </g>
   <g id="text_2">
    <g clip-path="url(#p876ac02ce4)">
     <!-- Pakistan -->
     <defs>
      <path d="M 19.671875 64.796875 
L 19.671875 37.40625 
L 32.078125 37.40625 
Q 38.96875 37.40625 42.71875 40.96875 
Q 46.484375 44.53125 46.484375 51.125 
Q 46.484375 57.671875 42.71875 61.234375 
Q 38.96875 64.796875 32.078125 64.796875 
z
M 9.8125 72.90625 
L 32.078125 72.90625 
Q 44.34375 72.90625 50.609375 67.359375 
Q 56.890625 61.8125 56.890625 51.125 
Q 56.890625 40.328125 50.609375 34.8125 
Q 44.34375 29.296875 32.078125 29.296875 
L 19.671875 29.296875 
L 19.671875 0 
L 9.8125 0 
z
" id="DejaVuSans-50"/>
      <path d="M 9.078125 75.984375 
L 18.109375 75.984375 
L 18.109375 31.109375 
L 44.921875 54.6875 
L 56.390625 54.6875 
L 27.390625 29.109375 
L 57.625 0 
L 45.90625 0 
L 18.109375 26.703125 
L 18.109375 0 
L 9.078125 0 
z
" id="DejaVuSans-6b"/>
      <path d="M 44.28125 53.078125 
L 44.28125 44.578125 
Q 40.484375 46.53125 36.375 47.5 
Q 32.28125 48.484375 27.875 48.484375 
Q 21.1875 48.484375 17.84375 46.4375 
Q 14.5 44.390625 14.5 40.28125 
Q 14.5 37.15625 16.890625 35.375 
Q 19.28125 33.59375 26.515625 31.984375 
L 29.59375 31.296875 
Q 39.15625 29.25 43.1875 25.515625 
Q 47.21875 21.78125 47.21875 15.09375 
Q 47.21875 7.46875 41.1875 3.015625 
Q 35.15625 -1.421875 24.609375 -1.421875 
Q 20.21875 -1.421875 15.453125 -0.5625 
Q 10.6875 0.296875 5.421875 2 
L 5.421875 11.28125 
Q 10.40625 8.6875 15.234375 7.390625 
Q 20.0625 6.109375 24.8125 6.109375 
Q 31.15625 6.109375 34.5625 8.28125 
Q 37.984375 10.453125 37.984375 14.40625 
Q 37.984375 18.0625 35.515625 20.015625 
Q 33.0625 21.96875 24.703125 23.78125 
L 21.578125 24.515625 
Q 13.234375 26.265625 9.515625 29.90625 
Q 5.8125 33.546875 5.8125 39.890625 
Q 5.8125 47.609375 11.28125 51.796875 
Q 16.75 56 26.8125 56 
Q 31.78125 56 36.171875 55.265625 
Q 40.578125 54.546875 44.28125 53.078125 
z
" id="DejaVuSans-73"/>
      <path d="M 18.3125 70.21875 
L 18.3125 54.6875 
L 36.8125 54.6875 
L 36.8125 47.703125 
L 18.3125 47.703125 
L 18.3125 18.015625 
Q 18.3125 11.328125 20.140625 9.421875 
Q 21.96875 7.515625 27.59375 7.515625 
L 36.8125 7.515625 
L 36.8125 0 
L 27.59375 0 
Q 17.1875 0 13.234375 3.875 
Q 9.28125 7.765625 9.28125 18.015625 
L 9.28125 47.703125 
L 2.6875 47.703125 
L 2.6875 54.6875 
L 9.28125 54.6875 
L 9.28125 70.21875 
z
" id="DejaVuSans-74"/>
     </defs>
     <g transform="translate(420.073509 137.170163)scale(0.07 -0.07)">
      <use xlink:href="#DejaVuSans-50"/>
      <use x="60.240234" xlink:href="#DejaVuSans-61"/>
      <use x="121.519531" xlink:href="#DejaVuSans-6b"/>
      <use x="179.429688" xlink:href="#DejaVuSans-69"/>
      <use x="207.212891" xlink:href="#DejaVuSans-73"/>
      <use x="259.3125" xlink:href="#DejaVuSans-74"/>
      <use x="298.521484" xlink:href="#DejaVuSans-61"/>
      <use x="359.800781" xlink:href="#DejaVuSans-6e"/>
     </g>
    </g>
   </g>
   <g id="text_3">
    <g clip-path="url(#p876ac02ce4)">
     <!-- United -->
     <defs>
      <path d="M 8.6875 72.90625 
L 18.609375 72.90625 
L 18.609375 28.609375 
Q 18.609375 16.890625 22.84375 11.734375 
Q 27.09375 6.59375 36.625 6.59375 
Q 46.09375 6.59375 50.34375 11.734375 
Q 54.59375 16.890625 54.59375 28.609375 
L 54.59375 72.90625 
L 64.5 72.90625 
L 64.5 27.390625 
Q 64.5 13.140625 57.4375 5.859375 
Q 50.390625 -1.421875 36.625 -1.421875 
Q 22.796875 -1.421875 15.734375 5.859375 
Q 8.6875 13.140625 8.6875 27.390625 
z
" id="DejaVuSans-55"/>
      <path d="M 56.203125 29.59375 
L 56.203125 25.203125 
L 14.890625 25.203125 
Q 15.484375 15.921875 20.484375 11.0625 
Q 25.484375 6.203125 34.421875 6.203125 
Q 39.59375 6.203125 44.453125 7.46875 
Q 49.3125 8.734375 54.109375 11.28125 
L 54.109375 2.78125 
Q 49.265625 0.734375 44.1875 -0.34375 
Q 39.109375 -1.421875 33.890625 -1.421875 
Q 20.796875 -1.421875 13.15625 6.1875 
Q 5.515625 13.8125 5.515625 26.8125 
Q 5.515625 40.234375 12.765625 48.109375 
Q 20.015625 56 32.328125 56 
Q 43.359375 56 49.78125 48.890625 
Q 56.203125 41.796875 56.203125 29.59375 
z
M 47.21875 32.234375 
Q 47.125 39.59375 43.09375 43.984375 
Q 39.0625 48.390625 32.421875 48.390625 
Q 24.90625 48.390625 20.390625 44.140625 
Q 15.875 39.890625 15.1875 32.171875 
z
" id="DejaVuSans-65"/>
     </defs>
     <g transform="translate(414.369259 112.037404)scale(0.07 -0.07)">
      <use xlink:href="#DejaVuSans-55"/>
      <use x="73.193359" xlink:href="#DejaVuSans-6e"/>
      <use x="136.572266" xlink:href="#DejaVuSans-69"/>
      <use x="164.355469" xlink:href="#DejaVuSans-74"/>
      <use x="203.564453" xlink:href="#DejaVuSans-65"/>
      <use x="265.087891" xlink:href="#DejaVuSans-64"/>
     </g>
    </g>
    <g clip-path="url(#p876ac02ce4)">
     <!-- States -->
     <defs>
      <path d="M 53.515625 70.515625 
L 53.515625 60.890625 
Q 47.90625 63.578125 42.921875 64.890625 
Q 37.9375 66.21875 33.296875 66.21875 
Q 25.25 66.21875 20.875 63.09375 
Q 16.5 59.96875 16.5 54.203125 
Q 16.5 49.359375 19.40625 46.890625 
Q 22.3125 44.4375 30.421875 42.921875 
L 36.375 41.703125 
Q 47.40625 39.59375 52.65625 34.296875 
Q 57.90625 29 57.90625 20.125 
Q 57.90625 9.515625 50.796875 4.046875 
Q 43.703125 -1.421875 29.984375 -1.421875 
Q 24.8125 -1.421875 18.96875 -0.25 
Q 13.140625 0.921875 6.890625 3.21875 
L 6.890625 13.375 
Q 12.890625 10.015625 18.65625 8.296875 
Q 24.421875 6.59375 29.984375 6.59375 
Q 38.421875 6.59375 43.015625 9.90625 
Q 47.609375 13.234375 47.609375 19.390625 
Q 47.609375 24.75 44.3125 27.78125 
Q 41.015625 30.8125 33.5 32.328125 
L 27.484375 33.5 
Q 16.453125 35.6875 11.515625 40.375 
Q 6.59375 45.0625 6.59375 53.421875 
Q 6.59375 63.09375 13.40625 68.65625 
Q 20.21875 74.21875 32.171875 74.21875 
Q 37.3125 74.21875 42.625 73.28125 
Q 47.953125 72.359375 53.515625 70.515625 
z
" id="DejaVuSans-53"/>
     </defs>
     <g transform="translate(414.781056 119.875873)scale(0.07 -0.07)">
      <use xlink:href="#DejaVuSans-53"/>
      <use x="63.476562" xlink:href="#DejaVuSans-74"/>
      <use x="102.685547" xlink:href="#DejaVuSans-61"/>
      <use x="163.964844" xlink:href="#DejaVuSans-74"/>
      <use x="203.173828" xlink:href="#DejaVuSans-65"/>
      <use x="264.697266" xlink:href="#DejaVuSans-73"/>
     </g>
    </g>
   </g>
   <g id="text_4">
    <g clip-path="url(#p876ac02ce4)">
     <!-- West -->
     <defs>
      <path d="M 3.328125 72.90625 
L 13.28125 72.90625 
L 28.609375 11.28125 
L 43.890625 72.90625 
L 54.984375 72.90625 
L 70.3125 11.28125 
L 85.59375 72.90625 
L 95.609375 72.90625 
L 77.296875 0 
L 64.890625 0 
L 49.515625 63.28125 
L 33.984375 0 
L 21.578125 0 
z
" id="DejaVuSans-57"/>
     </defs>
     <g transform="translate(402.378512 92.29415)scale(0.07 -0.07)">
      <use xlink:href="#DejaVuSans-57"/>
      <use x="98.798828" xlink:href="#DejaVuSans-65"/>
      <use x="160.322266" xlink:href="#DejaVuSans-73"/>
      <use x="212.421875" xlink:href="#DejaVuSans-74"/>
     </g>
    </g>
    <g clip-path="url(#p876ac02ce4)">
     <!-- Bank -->
     <defs>
      <path d="M 19.671875 34.8125 
L 19.671875 8.109375 
L 35.5 8.109375 
Q 43.453125 8.109375 47.28125 11.40625 
Q 51.125 14.703125 51.125 21.484375 
Q 51.125 28.328125 47.28125 31.5625 
Q 43.453125 34.8125 35.5 34.8125 
z
M 19.671875 64.796875 
L 19.671875 42.828125 
L 34.28125 42.828125 
Q 41.5 42.828125 45.03125 45.53125 
Q 48.578125 48.25 48.578125 53.8125 
Q 48.578125 59.328125 45.03125 62.0625 
Q 41.5 64.796875 34.28125 64.796875 
z
M 9.8125 72.90625 
L 35.015625 72.90625 
Q 46.296875 72.90625 52.390625 68.21875 
Q 58.5 63.53125 58.5 54.890625 
Q 58.5 48.1875 55.375 44.234375 
Q 52.25 40.28125 46.1875 39.3125 
Q 53.46875 37.75 57.5 32.78125 
Q 61.53125 27.828125 61.53125 20.40625 
Q 61.53125 10.640625 54.890625 5.3125 
Q 48.25 0 35.984375 0 
L 9.8125 0 
z
" id="DejaVuSans-42"/>
     </defs>
     <g transform="translate(402.394371 100.132619)scale(0.07 -0.07)">
      <use xlink:href="#DejaVuSans-42"/>
      <use x="68.603516" xlink:href="#DejaVuSans-61"/>
      <use x="129.882812" xlink:href="#DejaVuSans-6e"/>
      <use x="193.261719" xlink:href="#DejaVuSans-6b"/>
     </g>
    </g>
   </g>
   <g id="text_5">
    <g clip-path="url(#p876ac02ce4)">
     <!-- Afghanistan -->
     <defs>
      <path d="M 34.1875 63.1875 
L 20.796875 26.90625 
L 47.609375 26.90625 
z
M 28.609375 72.90625 
L 39.796875 72.90625 
L 67.578125 0 
L 57.328125 0 
L 50.6875 18.703125 
L 17.828125 18.703125 
L 11.1875 0 
L 0.78125 0 
z
" id="DejaVuSans-41"/>
      <path d="M 37.109375 75.984375 
L 37.109375 68.5 
L 28.515625 68.5 
Q 23.6875 68.5 21.796875 66.546875 
Q 19.921875 64.59375 19.921875 59.515625 
L 19.921875 54.6875 
L 34.71875 54.6875 
L 34.71875 47.703125 
L 19.921875 47.703125 
L 19.921875 0 
L 10.890625 0 
L 10.890625 47.703125 
L 2.296875 47.703125 
L 2.296875 54.6875 
L 10.890625 54.6875 
L 10.890625 58.5 
Q 10.890625 67.625 15.140625 71.796875 
Q 19.390625 75.984375 28.609375 75.984375 
z
" id="DejaVuSans-66"/>
      <path d="M 45.40625 27.984375 
Q 45.40625 37.75 41.375 43.109375 
Q 37.359375 48.484375 30.078125 48.484375 
Q 22.859375 48.484375 18.828125 43.109375 
Q 14.796875 37.75 14.796875 27.984375 
Q 14.796875 18.265625 18.828125 12.890625 
Q 22.859375 7.515625 30.078125 7.515625 
Q 37.359375 7.515625 41.375 12.890625 
Q 45.40625 18.265625 45.40625 27.984375 
z
M 54.390625 6.78125 
Q 54.390625 -7.171875 48.1875 -13.984375 
Q 42 -20.796875 29.203125 -20.796875 
Q 24.46875 -20.796875 20.265625 -20.09375 
Q 16.0625 -19.390625 12.109375 -17.921875 
L 12.109375 -9.1875 
Q 16.0625 -11.328125 19.921875 -12.34375 
Q 23.78125 -13.375 27.78125 -13.375 
Q 36.625 -13.375 41.015625 -8.765625 
Q 45.40625 -4.15625 45.40625 5.171875 
L 45.40625 9.625 
Q 42.625 4.78125 38.28125 2.390625 
Q 33.9375 0 27.875 0 
Q 17.828125 0 11.671875 7.65625 
Q 5.515625 15.328125 5.515625 27.984375 
Q 5.515625 40.671875 11.671875 48.328125 
Q 17.828125 56 27.875 56 
Q 33.9375 56 38.28125 53.609375 
Q 42.625 51.21875 45.40625 46.390625 
L 45.40625 54.6875 
L 54.390625 54.6875 
z
" id="DejaVuSans-67"/>
      <path d="M 54.890625 33.015625 
L 54.890625 0 
L 45.90625 0 
L 45.90625 32.71875 
Q 45.90625 40.484375 42.875 44.328125 
Q 39.84375 48.1875 33.796875 48.1875 
Q 26.515625 48.1875 22.3125 43.546875 
Q 18.109375 38.921875 18.109375 30.90625 
L 18.109375 0 
L 9.078125 0 
L 9.078125 75.984375 
L 18.109375 75.984375 
L 18.109375 46.1875 
Q 21.34375 51.125 25.703125 53.5625 
Q 30.078125 56 35.796875 56 
Q 45.21875 56 50.046875 50.171875 
Q 54.890625 44.34375 54.890625 33.015625 
z
" id="DejaVuSans-68"/>
     </defs>
     <g transform="translate(370.374907 78.612734)scale(0.07 -0.07)">
      <use xlink:href="#DejaVuSans-41"/>
      <use x="68.361328" xlink:href="#DejaVuSans-66"/>
      <use x="103.566406" xlink:href="#DejaVuSans-67"/>
      <use x="167.042969" xlink:href="#DejaVuSans-68"/>
      <use x="230.421875" xlink:href="#DejaVuSans-61"/>
      <use x="291.701172" xlink:href="#DejaVuSans-6e"/>
      <use x="355.080078" xlink:href="#DejaVuSans-69"/>
      <use x="382.863281" xlink:href="#DejaVuSans-73"/>
      <use x="434.962891" xlink:href="#DejaVuSans-74"/>
      <use x="474.171875" xlink:href="#DejaVuSans-61"/>
      <use x="535.451172" xlink:href="#DejaVuSans-6e"/>
     </g>
    </g>
   </g>
   <g id="text_6">
    <g clip-path="url(#p876ac02ce4)">
     <!-- Russia -->
     <defs>
      <path d="M 44.390625 34.1875 
Q 47.5625 33.109375 50.5625 29.59375 
Q 53.5625 26.078125 56.59375 19.921875 
L 66.609375 0 
L 56 0 
L 46.6875 18.703125 
Q 43.0625 26.03125 39.671875 28.421875 
Q 36.28125 30.8125 30.421875 30.8125 
L 19.671875 30.8125 
L 19.671875 0 
L 9.8125 0 
L 9.8125 72.90625 
L 32.078125 72.90625 
Q 44.578125 72.90625 50.734375 67.671875 
Q 56.890625 62.453125 56.890625 51.90625 
Q 56.890625 45.015625 53.6875 40.46875 
Q 50.484375 35.9375 44.390625 34.1875 
z
M 19.671875 64.796875 
L 19.671875 38.921875 
L 32.078125 38.921875 
Q 39.203125 38.921875 42.84375 42.21875 
Q 46.484375 45.515625 46.484375 51.90625 
Q 46.484375 58.296875 42.84375 61.546875 
Q 39.203125 64.796875 32.078125 64.796875 
z
" id="DejaVuSans-52"/>
      <path d="M 8.5 21.578125 
L 8.5 54.6875 
L 17.484375 54.6875 
L 17.484375 21.921875 
Q 17.484375 14.15625 20.5 10.265625 
Q 23.53125 6.390625 29.59375 6.390625 
Q 36.859375 6.390625 41.078125 11.03125 
Q 45.3125 15.671875 45.3125 23.6875 
L 45.3125 54.6875 
L 54.296875 54.6875 
L 54.296875 0 
L 45.3125 0 
L 45.3125 8.40625 
Q 42.046875 3.421875 37.71875 1 
Q 33.40625 -1.421875 27.6875 -1.421875 
Q 18.265625 -1.421875 13.375 4.4375 
Q 8.5 10.296875 8.5 21.578125 
z
M 31.109375 56 
z
" id="DejaVuSans-75"/>
     </defs>
     <g transform="translate(355.577212 63.754054)scale(0.07 -0.07)">
      <use xlink:href="#DejaVuSans-52"/>
      <use x="69.419922" xlink:href="#DejaVuSans-75"/>
      <use x="132.798828" xlink:href="#DejaVuSans-73"/>
      <use x="184.898438" xlink:href="#DejaVuSans-73"/>
      <use x="236.998047" xlink:href="#DejaVuSans-69"/>
      <use x="264.78125" xlink:href="#DejaVuSans-61"/>
     </g>
    </g>
   </g>
   <g id="text_7">
    <g clip-path="url(#p876ac02ce4)">
     <!-- Iran -->
     <defs>
      <path d="M 41.109375 46.296875 
Q 39.59375 47.171875 37.8125 47.578125 
Q 36.03125 48 33.890625 48 
Q 26.265625 48 22.1875 43.046875 
Q 18.109375 38.09375 18.109375 28.8125 
L 18.109375 0 
L 9.078125 0 
L 9.078125 54.6875 
L 18.109375 54.6875 
L 18.109375 46.1875 
Q 20.953125 51.171875 25.484375 53.578125 
Q 30.03125 56 36.53125 56 
Q 37.453125 56 38.578125 55.875 
Q 39.703125 55.765625 41.0625 55.515625 
z
" id="DejaVuSans-72"/>
     </defs>
     <g transform="translate(332.146617 52.143337)scale(0.07 -0.07)">
      <use xlink:href="#DejaVuSans-49"/>
      <use x="29.492188" xlink:href="#DejaVuSans-72"/>
      <use x="70.605469" xlink:href="#DejaVuSans-61"/>
      <use x="131.884766" xlink:href="#DejaVuSans-6e"/>
     </g>
    </g>
   </g>
   <g id="text_8">
    <g clip-path="url(#p876ac02ce4)">
     <!-- Greece -->
     <defs>
      <path d="M 59.515625 10.40625 
L 59.515625 29.984375 
L 43.40625 29.984375 
L 43.40625 38.09375 
L 69.28125 38.09375 
L 69.28125 6.78125 
Q 63.578125 2.734375 56.6875 0.65625 
Q 49.8125 -1.421875 42 -1.421875 
Q 24.90625 -1.421875 15.25 8.5625 
Q 5.609375 18.5625 5.609375 36.375 
Q 5.609375 54.25 15.25 64.234375 
Q 24.90625 74.21875 42 74.21875 
Q 49.125 74.21875 55.546875 72.453125 
Q 61.96875 70.703125 67.390625 67.28125 
L 67.390625 56.78125 
Q 61.921875 61.421875 55.765625 63.765625 
Q 49.609375 66.109375 42.828125 66.109375 
Q 29.4375 66.109375 22.71875 58.640625 
Q 16.015625 51.171875 16.015625 36.375 
Q 16.015625 21.625 22.71875 14.15625 
Q 29.4375 6.6875 42.828125 6.6875 
Q 48.046875 6.6875 52.140625 7.59375 
Q 56.25 8.5 59.515625 10.40625 
z
" id="DejaVuSans-47"/>
      <path d="M 48.78125 52.59375 
L 48.78125 44.1875 
Q 44.96875 46.296875 41.140625 47.34375 
Q 37.3125 48.390625 33.40625 48.390625 
Q 24.65625 48.390625 19.8125 42.84375 
Q 14.984375 37.3125 14.984375 27.296875 
Q 14.984375 17.28125 19.8125 11.734375 
Q 24.65625 6.203125 33.40625 6.203125 
Q 37.3125 6.203125 41.140625 7.25 
Q 44.96875 8.296875 48.78125 10.40625 
L 48.78125 2.09375 
Q 45.015625 0.34375 40.984375 -0.53125 
Q 36.96875 -1.421875 32.421875 -1.421875 
Q 20.0625 -1.421875 12.78125 6.34375 
Q 5.515625 14.109375 5.515625 27.296875 
Q 5.515625 40.671875 12.859375 48.328125 
Q 20.21875 56 33.015625 56 
Q 37.15625 56 41.109375 55.140625 
Q 45.0625 54.296875 48.78125 52.59375 
z
" id="DejaVuSans-63"/>
     </defs>
     <g transform="translate(295.728407 44.175976)scale(0.07 -0.07)">
      <use xlink:href="#DejaVuSans-47"/>
      <use x="77.490234" xlink:href="#DejaVuSans-72"/>
      <use x="118.572266" xlink:href="#DejaVuSans-65"/>
      <use x="180.095703" xlink:href="#DejaVuSans-65"/>
      <use x="241.619141" xlink:href="#DejaVuSans-63"/>
      <use x="296.599609" xlink:href="#DejaVuSans-65"/>
     </g>
    </g>
   </g>
   <g id="text_9">
    <g clip-path="url(#p876ac02ce4)">
     <!-- Australia -->
     <defs>
      <path d="M 9.421875 75.984375 
L 18.40625 75.984375 
L 18.40625 0 
L 9.421875 0 
z
" id="DejaVuSans-6c"/>
     </defs>
     <g transform="translate(260.401204 40.123298)scale(0.07 -0.07)">
      <use xlink:href="#DejaVuSans-41"/>
      <use x="68.408203" xlink:href="#DejaVuSans-75"/>
      <use x="131.787109" xlink:href="#DejaVuSans-73"/>
      <use x="183.886719" xlink:href="#DejaVuSans-74"/>
      <use x="223.095703" xlink:href="#DejaVuSans-72"/>
      <use x="264.208984" xlink:href="#DejaVuSans-61"/>
      <use x="325.488281" xlink:href="#DejaVuSans-6c"/>
      <use x="353.271484" xlink:href="#DejaVuSans-69"/>
      <use x="381.054688" xlink:href="#DejaVuSans-61"/>
     </g>
    </g>
   </g>
   <g id="text_10">
    <g clip-path="url(#p876ac02ce4)">
     <!-- United -->
     <g transform="translate(231.440365 36.204064)scale(0.07 -0.07)">
      <use xlink:href="#DejaVuSans-55"/>
      <use x="73.193359" xlink:href="#DejaVuSans-6e"/>
      <use x="136.572266" xlink:href="#DejaVuSans-69"/>
      <use x="164.355469" xlink:href="#DejaVuSans-74"/>
      <use x="203.564453" xlink:href="#DejaVuSans-65"/>
      <use x="265.087891" xlink:href="#DejaVuSans-64"/>
     </g>
    </g>
    <g clip-path="url(#p876ac02ce4)">
     <!-- Kingdom -->
     <defs>
      <path d="M 9.8125 72.90625 
L 19.671875 72.90625 
L 19.671875 42.09375 
L 52.390625 72.90625 
L 65.09375 72.90625 
L 28.90625 38.921875 
L 67.671875 0 
L 54.6875 0 
L 19.671875 35.109375 
L 19.671875 0 
L 9.8125 0 
z
" id="DejaVuSans-4b"/>
      <path d="M 30.609375 48.390625 
Q 23.390625 48.390625 19.1875 42.75 
Q 14.984375 37.109375 14.984375 27.296875 
Q 14.984375 17.484375 19.15625 11.84375 
Q 23.34375 6.203125 30.609375 6.203125 
Q 37.796875 6.203125 41.984375 11.859375 
Q 46.1875 17.53125 46.1875 27.296875 
Q 46.1875 37.015625 41.984375 42.703125 
Q 37.796875 48.390625 30.609375 48.390625 
z
M 30.609375 56 
Q 42.328125 56 49.015625 48.375 
Q 55.71875 40.765625 55.71875 27.296875 
Q 55.71875 13.875 49.015625 6.21875 
Q 42.328125 -1.421875 30.609375 -1.421875 
Q 18.84375 -1.421875 12.171875 6.21875 
Q 5.515625 13.875 5.515625 27.296875 
Q 5.515625 40.765625 12.171875 48.375 
Q 18.84375 56 30.609375 56 
z
" id="DejaVuSans-6f"/>
      <path d="M 52 44.1875 
Q 55.375 50.25 60.0625 53.125 
Q 64.75 56 71.09375 56 
Q 79.640625 56 84.28125 50.015625 
Q 88.921875 44.046875 88.921875 33.015625 
L 88.921875 0 
L 79.890625 0 
L 79.890625 32.71875 
Q 79.890625 40.578125 77.09375 44.375 
Q 74.3125 48.1875 68.609375 48.1875 
Q 61.625 48.1875 57.5625 43.546875 
Q 53.515625 38.921875 53.515625 30.90625 
L 53.515625 0 
L 44.484375 0 
L 44.484375 32.71875 
Q 44.484375 40.625 41.703125 44.40625 
Q 38.921875 48.1875 33.109375 48.1875 
Q 26.21875 48.1875 22.15625 43.53125 
Q 18.109375 38.875 18.109375 30.90625 
L 18.109375 0 
L 9.078125 0 
L 9.078125 54.6875 
L 18.109375 54.6875 
L 18.109375 46.1875 
Q 21.1875 51.21875 25.484375 53.609375 
Q 29.78125 56 35.6875 56 
Q 41.65625 56 45.828125 52.96875 
Q 50 49.953125 52 44.1875 
z
" id="DejaVuSans-6d"/>
     </defs>
     <g transform="translate(227.459662 44.042532)scale(0.07 -0.07)">
      <use xlink:href="#DejaVuSans-4b"/>
      <use x="65.576172" xlink:href="#DejaVuSans-69"/>
      <use x="93.359375" xlink:href="#DejaVuSans-6e"/>
      <use x="156.738281" xlink:href="#DejaVuSans-67"/>
      <use x="220.214844" xlink:href="#DejaVuSans-64"/>
      <use x="283.691406" xlink:href="#DejaVuSans-6f"/>
      <use x="344.873047" xlink:href="#DejaVuSans-6d"/>
     </g>
    </g>
   </g>
   <g id="text_11">
    <g clip-path="url(#p876ac02ce4)">
     <!-- China -->
     <defs>
      <path d="M 64.40625 67.28125 
L 64.40625 56.890625 
Q 59.421875 61.53125 53.78125 63.8125 
Q 48.140625 66.109375 41.796875 66.109375 
Q 29.296875 66.109375 22.65625 58.46875 
Q 16.015625 50.828125 16.015625 36.375 
Q 16.015625 21.96875 22.65625 14.328125 
Q 29.296875 6.6875 41.796875 6.6875 
Q 48.140625 6.6875 53.78125 8.984375 
Q 59.421875 11.28125 64.40625 15.921875 
L 64.40625 5.609375 
Q 59.234375 2.09375 53.4375 0.328125 
Q 47.65625 -1.421875 41.21875 -1.421875 
Q 24.65625 -1.421875 15.125 8.703125 
Q 5.609375 18.84375 5.609375 36.375 
Q 5.609375 53.953125 15.125 64.078125 
Q 24.65625 74.21875 41.21875 74.21875 
Q 47.75 74.21875 53.53125 72.484375 
Q 59.328125 70.75 64.40625 67.28125 
z
" id="DejaVuSans-43"/>
     </defs>
     <g transform="translate(200.561442 44.175976)scale(0.07 -0.07)">
      <use xlink:href="#DejaVuSans-43"/>
      <use x="69.824219" xlink:href="#DejaVuSans-68"/>
      <use x="133.203125" xlink:href="#DejaVuSans-69"/>
      <use x="160.986328" xlink:href="#DejaVuSans-6e"/>
      <use x="224.365234" xlink:href="#DejaVuSans-61"/>
     </g>
    </g>
   </g>
   <g id="text_12">
    <g clip-path="url(#p876ac02ce4)">
     <!-- Egypt -->
     <defs>
      <path d="M 9.8125 72.90625 
L 55.90625 72.90625 
L 55.90625 64.59375 
L 19.671875 64.59375 
L 19.671875 43.015625 
L 54.390625 43.015625 
L 54.390625 34.71875 
L 19.671875 34.71875 
L 19.671875 8.296875 
L 56.78125 8.296875 
L 56.78125 0 
L 9.8125 0 
z
" id="DejaVuSans-45"/>
      <path d="M 32.171875 -5.078125 
Q 28.375 -14.84375 24.75 -17.8125 
Q 21.140625 -20.796875 15.09375 -20.796875 
L 7.90625 -20.796875 
L 7.90625 -13.28125 
L 13.1875 -13.28125 
Q 16.890625 -13.28125 18.9375 -11.515625 
Q 21 -9.765625 23.484375 -3.21875 
L 25.09375 0.875 
L 2.984375 54.6875 
L 12.5 54.6875 
L 29.59375 11.921875 
L 46.6875 54.6875 
L 56.203125 54.6875 
z
" id="DejaVuSans-79"/>
      <path d="M 18.109375 8.203125 
L 18.109375 -20.796875 
L 9.078125 -20.796875 
L 9.078125 54.6875 
L 18.109375 54.6875 
L 18.109375 46.390625 
Q 20.953125 51.265625 25.265625 53.625 
Q 29.59375 56 35.59375 56 
Q 45.5625 56 51.78125 48.09375 
Q 58.015625 40.1875 58.015625 27.296875 
Q 58.015625 14.40625 51.78125 6.484375 
Q 45.5625 -1.421875 35.59375 -1.421875 
Q 29.59375 -1.421875 25.265625 0.953125 
Q 20.953125 3.328125 18.109375 8.203125 
z
M 48.6875 27.296875 
Q 48.6875 37.203125 44.609375 42.84375 
Q 40.53125 48.484375 33.40625 48.484375 
Q 26.265625 48.484375 22.1875 42.84375 
Q 18.109375 37.203125 18.109375 27.296875 
Q 18.109375 17.390625 22.1875 11.75 
Q 26.265625 6.109375 33.40625 6.109375 
Q 40.53125 6.109375 44.609375 11.75 
Q 48.6875 17.390625 48.6875 27.296875 
z
" id="DejaVuSans-70"/>
     </defs>
     <g transform="translate(169.742138 52.143337)scale(0.07 -0.07)">
      <use xlink:href="#DejaVuSans-45"/>
      <use x="63.183594" xlink:href="#DejaVuSans-67"/>
      <use x="126.660156" xlink:href="#DejaVuSans-79"/>
      <use x="185.839844" xlink:href="#DejaVuSans-70"/>
      <use x="249.316406" xlink:href="#DejaVuSans-74"/>
     </g>
    </g>
   </g>
   <g id="text_13">
    <g clip-path="url(#p876ac02ce4)">
     <!-- Poland -->
     <g transform="translate(140.025757 63.754054)scale(0.07 -0.07)">
      <use xlink:href="#DejaVuSans-50"/>
      <use x="60.255859" xlink:href="#DejaVuSans-6f"/>
      <use x="121.4375" xlink:href="#DejaVuSans-6c"/>
      <use x="149.220703" xlink:href="#DejaVuSans-61"/>
      <use x="210.5" xlink:href="#DejaVuSans-6e"/>
      <use x="273.878906" xlink:href="#DejaVuSans-64"/>
     </g>
    </g>
   </g>
   <g id="text_14">
    <g clip-path="url(#p876ac02ce4)">
     <!-- Syria -->
     <g transform="translate(118.639323 78.612726)scale(0.07 -0.07)">
      <use xlink:href="#DejaVuSans-53"/>
      <use x="63.476562" xlink:href="#DejaVuSans-79"/>
      <use x="122.65625" xlink:href="#DejaVuSans-72"/>
      <use x="163.769531" xlink:href="#DejaVuSans-69"/>
      <use x="191.552734" xlink:href="#DejaVuSans-61"/>
     </g>
    </g>
   </g>
   <g id="text_15">
    <g clip-path="url(#p876ac02ce4)">
     <!-- Turkey -->
     <defs>
      <path d="M -0.296875 72.90625 
L 61.375 72.90625 
L 61.375 64.59375 
L 35.5 64.59375 
L 35.5 0 
L 25.59375 0 
L 25.59375 64.59375 
L -0.296875 64.59375 
z
" id="DejaVuSans-54"/>
     </defs>
     <g transform="translate(95.600071 96.213384)scale(0.07 -0.07)">
      <use xlink:href="#DejaVuSans-54"/>
      <use x="60.849609" xlink:href="#DejaVuSans-75"/>
      <use x="124.228516" xlink:href="#DejaVuSans-72"/>
      <use x="165.341797" xlink:href="#DejaVuSans-6b"/>
      <use x="223.205078" xlink:href="#DejaVuSans-65"/>
      <use x="284.728516" xlink:href="#DejaVuSans-79"/>
     </g>
    </g>
   </g>
   <g id="text_16">
    <g clip-path="url(#p876ac02ce4)">
     <!-- South -->
     <g transform="translate(82.781377 112.03739)scale(0.07 -0.07)">
      <use xlink:href="#DejaVuSans-53"/>
      <use x="63.476562" xlink:href="#DejaVuSans-6f"/>
      <use x="124.658203" xlink:href="#DejaVuSans-75"/>
      <use x="188.037109" xlink:href="#DejaVuSans-74"/>
      <use x="227.246094" xlink:href="#DejaVuSans-68"/>
     </g>
    </g>
    <g clip-path="url(#p876ac02ce4)">
     <!-- Korea -->
     <g transform="translate(82.783018 119.875859)scale(0.07 -0.07)">
      <use xlink:href="#DejaVuSans-4b"/>
      <use x="65.498047" xlink:href="#DejaVuSans-6f"/>
      <use x="126.679688" xlink:href="#DejaVuSans-72"/>
      <use x="167.761719" xlink:href="#DejaVuSans-65"/>
      <use x="229.285156" xlink:href="#DejaVuSans-61"/>
     </g>
    </g>
   </g>
   <g id="text_17">
    <g clip-path="url(#p876ac02ce4)">
     <!-- Canada -->
     <g transform="translate(70.619616 137.170162)scale(0.07 -0.07)">
      <use xlink:href="#DejaVuSans-43"/>
      <use x="69.824219" xlink:href="#DejaVuSans-61"/>
      <use x="131.103516" xlink:href="#DejaVuSans-6e"/>
      <use x="194.482422" xlink:href="#DejaVuSans-61"/>
      <use x="255.761719" xlink:href="#DejaVuSans-64"/>
      <use x="319.238281" xlink:href="#DejaVuSans-61"/>
     </g>
    </g>
   </g>
   <g id="text_18">
    <g clip-path="url(#p876ac02ce4)">
     <!-- Iraq -->
     <defs>
      <path d="M 14.796875 27.296875 
Q 14.796875 17.390625 18.875 11.75 
Q 22.953125 6.109375 30.078125 6.109375 
Q 37.203125 6.109375 41.296875 11.75 
Q 45.40625 17.390625 45.40625 27.296875 
Q 45.40625 37.203125 41.296875 42.84375 
Q 37.203125 48.484375 30.078125 48.484375 
Q 22.953125 48.484375 18.875 42.84375 
Q 14.796875 37.203125 14.796875 27.296875 
z
M 45.40625 8.203125 
Q 42.578125 3.328125 38.25 0.953125 
Q 33.9375 -1.421875 27.875 -1.421875 
Q 17.96875 -1.421875 11.734375 6.484375 
Q 5.515625 14.40625 5.515625 27.296875 
Q 5.515625 40.1875 11.734375 48.09375 
Q 17.96875 56 27.875 56 
Q 33.9375 56 38.25 53.625 
Q 42.578125 51.265625 45.40625 46.390625 
L 45.40625 54.6875 
L 54.390625 54.6875 
L 54.390625 -20.796875 
L 45.40625 -20.796875 
z
" id="DejaVuSans-71"/>
     </defs>
     <g transform="translate(74.060572 159.131568)scale(0.07 -0.07)">
      <use xlink:href="#DejaVuSans-49"/>
      <use x="29.492188" xlink:href="#DejaVuSans-72"/>
      <use x="70.605469" xlink:href="#DejaVuSans-61"/>
      <use x="131.884766" xlink:href="#DejaVuSans-71"/>
     </g>
    </g>
   </g>
   <g id="text_19">
    <g clip-path="url(#p876ac02ce4)">
     <!-- Ukraine -->
     <g transform="translate(70.422194 181.092946)scale(0.07 -0.07)">
      <use xlink:href="#DejaVuSans-55"/>
      <use x="73.193359" xlink:href="#DejaVuSans-6b"/>
      <use x="131.103516" xlink:href="#DejaVuSans-72"/>
      <use x="172.216797" xlink:href="#DejaVuSans-61"/>
      <use x="233.496094" xlink:href="#DejaVuSans-69"/>
      <use x="261.279297" xlink:href="#DejaVuSans-6e"/>
      <use x="324.658203" xlink:href="#DejaVuSans-65"/>
     </g>
    </g>
   </g>
   <g id="text_20">
    <g clip-path="url(#p876ac02ce4)">
     <!-- France -->
     <defs>
      <path d="M 9.8125 72.90625 
L 51.703125 72.90625 
L 51.703125 64.59375 
L 19.671875 64.59375 
L 19.671875 43.109375 
L 48.578125 43.109375 
L 48.578125 34.8125 
L 19.671875 34.8125 
L 19.671875 0 
L 9.8125 0 
z
" id="DejaVuSans-46"/>
     </defs>
     <g transform="translate(81.064179 202.306486)scale(0.07 -0.07)">
      <use xlink:href="#DejaVuSans-46"/>
      <use x="57.410156" xlink:href="#DejaVuSans-72"/>
      <use x="98.523438" xlink:href="#DejaVuSans-61"/>
      <use x="159.802734" xlink:href="#DejaVuSans-6e"/>
      <use x="223.181641" xlink:href="#DejaVuSans-63"/>
      <use x="278.162109" xlink:href="#DejaVuSans-65"/>
     </g>
    </g>
   </g>
   <g id="text_21">
    <g clip-path="url(#p876ac02ce4)">
     <!-- Yemen -->
     <defs>
      <path d="M -0.203125 72.90625 
L 10.40625 72.90625 
L 30.609375 42.921875 
L 50.6875 72.90625 
L 61.28125 72.90625 
L 35.5 34.71875 
L 35.5 0 
L 25.59375 0 
L 25.59375 34.71875 
z
" id="DejaVuSans-59"/>
     </defs>
     <g transform="translate(95.571634 222.049726)scale(0.07 -0.07)">
      <use xlink:href="#DejaVuSans-59"/>
      <use x="60.880859" xlink:href="#DejaVuSans-65"/>
      <use x="122.404297" xlink:href="#DejaVuSans-6d"/>
      <use x="219.816406" xlink:href="#DejaVuSans-65"/>
      <use x="281.339844" xlink:href="#DejaVuSans-6e"/>
     </g>
    </g>
   </g>
   <g id="text_22">
    <g clip-path="url(#p876ac02ce4)">
     <!-- Germany -->
     <g transform="translate(111.341265 239.650391)scale(0.07 -0.07)">
      <use xlink:href="#DejaVuSans-47"/>
      <use x="77.490234" xlink:href="#DejaVuSans-65"/>
      <use x="139.013672" xlink:href="#DejaVuSans-72"/>
      <use x="180.111328" xlink:href="#DejaVuSans-6d"/>
      <use x="277.523438" xlink:href="#DejaVuSans-61"/>
      <use x="338.802734" xlink:href="#DejaVuSans-6e"/>
      <use x="402.181641" xlink:href="#DejaVuSans-79"/>
     </g>
    </g>
   </g>
   <g id="text_23">
    <g clip-path="url(#p876ac02ce4)">
     <!-- Mexico -->
     <defs>
      <path d="M 9.8125 72.90625 
L 24.515625 72.90625 
L 43.109375 23.296875 
L 61.8125 72.90625 
L 76.515625 72.90625 
L 76.515625 0 
L 66.890625 0 
L 66.890625 64.015625 
L 48.09375 14.015625 
L 38.1875 14.015625 
L 19.390625 64.015625 
L 19.390625 0 
L 9.8125 0 
z
" id="DejaVuSans-4d"/>
      <path d="M 54.890625 54.6875 
L 35.109375 28.078125 
L 55.90625 0 
L 45.3125 0 
L 29.390625 21.484375 
L 13.484375 0 
L 2.875 0 
L 24.125 28.609375 
L 4.6875 54.6875 
L 15.28125 54.6875 
L 29.78125 35.203125 
L 44.28125 54.6875 
z
" id="DejaVuSans-78"/>
     </defs>
     <g transform="translate(139.550512 254.509057)scale(0.07 -0.07)">
      <use xlink:href="#DejaVuSans-4d"/>
      <use x="86.279297" xlink:href="#DejaVuSans-65"/>
      <use x="147.787109" xlink:href="#DejaVuSans-78"/>
      <use x="206.966797" xlink:href="#DejaVuSans-69"/>
      <use x="234.75" xlink:href="#DejaVuSans-63"/>
      <use x="289.730469" xlink:href="#DejaVuSans-6f"/>
     </g>
    </g>
   </g>
   <g id="text_24">
    <g clip-path="url(#p876ac02ce4)">
     <!-- Philippines -->
     <g transform="translate(160.984471 266.119781)scale(0.07 -0.07)">
      <use xlink:href="#DejaVuSans-50"/>
      <use x="60.302734" xlink:href="#DejaVuSans-68"/>
      <use x="123.681641" xlink:href="#DejaVuSans-69"/>
      <use x="151.464844" xlink:href="#DejaVuSans-6c"/>
      <use x="179.248047" xlink:href="#DejaVuSans-69"/>
      <use x="207.03125" xlink:href="#DejaVuSans-70"/>
      <use x="270.507812" xlink:href="#DejaVuSans-70"/>
      <use x="333.984375" xlink:href="#DejaVuSans-69"/>
      <use x="361.767578" xlink:href="#DejaVuSans-6e"/>
      <use x="425.146484" xlink:href="#DejaVuSans-65"/>
      <use x="486.669922" xlink:href="#DejaVuSans-73"/>
     </g>
    </g>
   </g>
   <g id="text_25">
    <g clip-path="url(#p876ac02ce4)">
     <!-- Belgium -->
     <g transform="translate(196.209968 274.087142)scale(0.07 -0.07)">
      <use xlink:href="#DejaVuSans-42"/>
      <use x="68.603516" xlink:href="#DejaVuSans-65"/>
      <use x="130.126953" xlink:href="#DejaVuSans-6c"/>
      <use x="157.910156" xlink:href="#DejaVuSans-67"/>
      <use x="221.386719" xlink:href="#DejaVuSans-69"/>
      <use x="249.169922" xlink:href="#DejaVuSans-75"/>
      <use x="312.548828" xlink:href="#DejaVuSans-6d"/>
     </g>
    </g>
   </g>
   <g id="text_26">
    <g clip-path="url(#p876ac02ce4)">
     <!-- Israel -->
     <g transform="translate(233.374692 278.139827)scale(0.07 -0.07)">
      <use xlink:href="#DejaVuSans-49"/>
      <use x="29.492188" xlink:href="#DejaVuSans-73"/>
      <use x="81.591797" xlink:href="#DejaVuSans-72"/>
      <use x="122.705078" xlink:href="#DejaVuSans-61"/>
      <use x="183.984375" xlink:href="#DejaVuSans-65"/>
      <use x="245.507812" xlink:href="#DejaVuSans-6c"/>
     </g>
    </g>
   </g>
   <g id="text_27">
    <g clip-path="url(#p876ac02ce4)">
     <!-- Saudi -->
     <g transform="translate(266.10289 274.220593)scale(0.07 -0.07)">
      <use xlink:href="#DejaVuSans-53"/>
      <use x="63.476562" xlink:href="#DejaVuSans-61"/>
      <use x="124.755859" xlink:href="#DejaVuSans-75"/>
      <use x="188.134766" xlink:href="#DejaVuSans-64"/>
      <use x="251.611328" xlink:href="#DejaVuSans-69"/>
     </g>
    </g>
    <g clip-path="url(#p876ac02ce4)">
     <!-- Arabia -->
     <defs>
      <path d="M 48.6875 27.296875 
Q 48.6875 37.203125 44.609375 42.84375 
Q 40.53125 48.484375 33.40625 48.484375 
Q 26.265625 48.484375 22.1875 42.84375 
Q 18.109375 37.203125 18.109375 27.296875 
Q 18.109375 17.390625 22.1875 11.75 
Q 26.265625 6.109375 33.40625 6.109375 
Q 40.53125 6.109375 44.609375 11.75 
Q 48.6875 17.390625 48.6875 27.296875 
z
M 18.109375 46.390625 
Q 20.953125 51.265625 25.265625 53.625 
Q 29.59375 56 35.59375 56 
Q 45.5625 56 51.78125 48.09375 
Q 58.015625 40.1875 58.015625 27.296875 
Q 58.015625 14.40625 51.78125 6.484375 
Q 45.5625 -1.421875 35.59375 -1.421875 
Q 29.59375 -1.421875 25.265625 0.953125 
Q 20.953125 3.328125 18.109375 8.203125 
L 18.109375 0 
L 9.078125 0 
L 9.078125 75.984375 
L 18.109375 75.984375 
z
" id="DejaVuSans-62"/>
     </defs>
     <g transform="translate(264.565077 282.059061)scale(0.07 -0.07)">
      <use xlink:href="#DejaVuSans-41"/>
      <use x="68.408203" xlink:href="#DejaVuSans-72"/>
      <use x="109.521484" xlink:href="#DejaVuSans-61"/>
      <use x="170.800781" xlink:href="#DejaVuSans-62"/>
      <use x="234.277344" xlink:href="#DejaVuSans-69"/>
      <use x="262.060547" xlink:href="#DejaVuSans-61"/>
     </g>
    </g>
   </g>
   <g id="text_28">
    <g clip-path="url(#p876ac02ce4)">
     <!-- Spain -->
     <g transform="translate(298.4841 274.087142)scale(0.07 -0.07)">
      <use xlink:href="#DejaVuSans-53"/>
      <use x="63.476562" xlink:href="#DejaVuSans-70"/>
      <use x="126.953125" xlink:href="#DejaVuSans-61"/>
      <use x="188.232422" xlink:href="#DejaVuSans-69"/>
      <use x="216.015625" xlink:href="#DejaVuSans-6e"/>
     </g>
    </g>
   </g>
   <g id="text_29">
    <g clip-path="url(#p876ac02ce4)">
     <!-- Italy -->
     <g transform="translate(331.38756 266.119781)scale(0.07 -0.07)">
      <use xlink:href="#DejaVuSans-49"/>
      <use x="29.492188" xlink:href="#DejaVuSans-74"/>
      <use x="68.701172" xlink:href="#DejaVuSans-61"/>
      <use x="129.980469" xlink:href="#DejaVuSans-6c"/>
      <use x="157.763672" xlink:href="#DejaVuSans-79"/>
     </g>
    </g>
   </g>
   <g id="text_30">
    <g clip-path="url(#p876ac02ce4)">
     <!-- Switzerland -->
     <defs>
      <path d="M 4.203125 54.6875 
L 13.1875 54.6875 
L 24.421875 12.015625 
L 35.59375 54.6875 
L 46.1875 54.6875 
L 57.421875 12.015625 
L 68.609375 54.6875 
L 77.59375 54.6875 
L 63.28125 0 
L 52.6875 0 
L 40.921875 44.828125 
L 29.109375 0 
L 18.5 0 
z
" id="DejaVuSans-77"/>
      <path d="M 5.515625 54.6875 
L 48.1875 54.6875 
L 48.1875 46.484375 
L 14.40625 7.171875 
L 48.1875 7.171875 
L 48.1875 0 
L 4.296875 0 
L 4.296875 8.203125 
L 38.09375 47.515625 
L 5.515625 47.515625 
z
" id="DejaVuSans-7a"/>
     </defs>
     <g transform="translate(346.573473 254.509057)scale(0.07 -0.07)">
      <use xlink:href="#DejaVuSans-53"/>
      <use x="63.476562" xlink:href="#DejaVuSans-77"/>
      <use x="145.263672" xlink:href="#DejaVuSans-69"/>
      <use x="173.046875" xlink:href="#DejaVuSans-74"/>
      <use x="212.255859" xlink:href="#DejaVuSans-7a"/>
      <use x="264.746094" xlink:href="#DejaVuSans-65"/>
      <use x="326.269531" xlink:href="#DejaVuSans-72"/>
      <use x="367.382812" xlink:href="#DejaVuSans-6c"/>
      <use x="395.166016" xlink:href="#DejaVuSans-61"/>
      <use x="456.445312" xlink:href="#DejaVuSans-6e"/>
      <use x="519.824219" xlink:href="#DejaVuSans-64"/>
     </g>
    </g>
   </g>
   <g id="text_31">
    <g clip-path="url(#p876ac02ce4)">
     <!-- Japan -->
     <defs>
      <path d="M 9.8125 72.90625 
L 19.671875 72.90625 
L 19.671875 5.078125 
Q 19.671875 -8.109375 14.671875 -14.0625 
Q 9.671875 -20.015625 -1.421875 -20.015625 
L -5.171875 -20.015625 
L -5.171875 -11.71875 
L -2.09375 -11.71875 
Q 4.4375 -11.71875 7.125 -8.046875 
Q 9.8125 -4.390625 9.8125 5.078125 
z
" id="DejaVuSans-4a"/>
     </defs>
     <g transform="translate(381.571057 239.650406)scale(0.07 -0.07)">
      <use xlink:href="#DejaVuSans-4a"/>
      <use x="29.492188" xlink:href="#DejaVuSans-61"/>
      <use x="90.771484" xlink:href="#DejaVuSans-70"/>
      <use x="154.248047" xlink:href="#DejaVuSans-61"/>
      <use x="215.527344" xlink:href="#DejaVuSans-6e"/>
     </g>
    </g>
   </g>
   <g id="text_32">
    <g clip-path="url(#p876ac02ce4)">
     <!-- North -->
     <defs>
      <path d="M 9.8125 72.90625 
L 23.09375 72.90625 
L 55.421875 11.921875 
L 55.421875 72.90625 
L 64.984375 72.90625 
L 64.984375 0 
L 51.703125 0 
L 19.390625 60.984375 
L 19.390625 0 
L 9.8125 0 
z
" id="DejaVuSans-4e"/>
     </defs>
     <g transform="translate(401.396314 218.130513)scale(0.07 -0.07)">
      <use xlink:href="#DejaVuSans-4e"/>
      <use x="74.804688" xlink:href="#DejaVuSans-6f"/>
      <use x="135.986328" xlink:href="#DejaVuSans-72"/>
      <use x="177.099609" xlink:href="#DejaVuSans-74"/>
      <use x="216.308594" xlink:href="#DejaVuSans-68"/>
     </g>
    </g>
    <g clip-path="url(#p876ac02ce4)">
     <!-- Korea -->
     <g transform="translate(401.015142 225.968982)scale(0.07 -0.07)">
      <use xlink:href="#DejaVuSans-4b"/>
      <use x="65.498047" xlink:href="#DejaVuSans-6f"/>
      <use x="126.679688" xlink:href="#DejaVuSans-72"/>
      <use x="167.761719" xlink:href="#DejaVuSans-65"/>
      <use x="229.285156" xlink:href="#DejaVuSans-61"/>
     </g>
    </g>
   </g>
   <g id="text_33">
    <g clip-path="url(#p876ac02ce4)">
     <!-- Cuba -->
     <g transform="translate(416.84004 202.306483)scale(0.07 -0.07)">
      <use xlink:href="#DejaVuSans-43"/>
      <use x="69.824219" xlink:href="#DejaVuSans-75"/>
      <use x="133.203125" xlink:href="#DejaVuSans-62"/>
      <use x="196.679688" xlink:href="#DejaVuSans-61"/>
     </g>
    </g>
   </g>
   <g id="text_34">
    <g clip-path="url(#p876ac02ce4)">
     <!-- Jordan -->
     <g transform="translate(423.686712 181.092944)scale(0.07 -0.07)">
      <use xlink:href="#DejaVuSans-4a"/>
      <use x="29.492188" xlink:href="#DejaVuSans-6f"/>
      <use x="90.673828" xlink:href="#DejaVuSans-72"/>
      <use x="131.771484" xlink:href="#DejaVuSans-64"/>
      <use x="195.248047" xlink:href="#DejaVuSans-61"/>
      <use x="256.527344" xlink:href="#DejaVuSans-6e"/>
     </g>
    </g>
   </g>
  </g>
 </g>
 <defs>
  <clipPath id="p876ac02ce4">
   <rect height="288" width="432" x="43.411094" y="13.2"/>
  </clipPath>
 </defs>
</svg>
