<?xml version="1.0" encoding="utf-8" standalone="no"?>
<!DOCTYPE svg PUBLIC "-//W3C//DTD SVG 1.1//EN"
  "http://www.w3.org/Graphics/SVG/1.1/DTD/svg11.dtd">
<!-- Created with matplotlib (http://matplotlib.org/) -->
<svg height="328.545937pt" version="1.1" viewBox="0 0 488.611094 328.545937" width="488.611094pt" xmlns="http://www.w3.org/2000/svg" xmlns:xlink="http://www.w3.org/1999/xlink">
 <defs>
  <style type="text/css">
*{stroke-linecap:butt;stroke-linejoin:round;}
  </style>
 </defs>
 <g id="figure_1">
  <g id="patch_1">
   <path d="M 0 328.545937 
L 488.611094 328.545937 
L 488.611094 0 
L 0 0 
z
" style="fill:#ffffff;"/>
  </g>
  <g id="axes_1">
   <g id="patch_2">
    <path clip-path="url(#p3dda1c8db4)" d="M 437.92349 157.199999 
Q 435.475054 144.801526 433.118127 132.866439 
" style="fill:none;stroke:#f5aa89;stroke-linecap:round;stroke-width:0.422469;"/>
    <path clip-path="url(#p3dda1c8db4)" d="M 431.93097 137.178127 
L 433.118127 132.866439 
L 435.855183 136.403178 
L 431.93097 137.178127 
z
" style="fill:#f5aa89;stroke:#f5aa89;stroke-linecap:round;stroke-width:0.422469;"/>
   </g>
   <g id="patch_3">
    <path clip-path="url(#p3dda1c8db4)" d="M 437.92349 157.199999 
Q 427.10766 130.289851 417.542672 106.49184 
" style="fill:none;stroke:#be3036;stroke-linecap:round;stroke-width:3;"/>
    <path clip-path="url(#p3dda1c8db4)" d="M 417.178669 110.949138 
L 417.542672 106.49184 
L 420.890108 109.457422 
L 417.178669 110.949138 
z
" style="fill:#be3036;stroke:#be3036;stroke-linecap:round;stroke-width:3;"/>
   </g>
   <g id="patch_4">
    <path clip-path="url(#p3dda1c8db4)" d="M 437.92349 157.199999 
Q 413.396513 117.724428 389.211749 78.79964 
" style="fill:none;stroke:#bd2d35;stroke-linecap:round;stroke-width:0.579981;"/>
    <path clip-path="url(#p3dda1c8db4)" d="M 389.623947 83.252739 
L 389.211749 78.79964 
L 393.021547 81.141741 
L 389.623947 83.252739 
z
" style="fill:#bd2d35;stroke:#bd2d35;stroke-linecap:round;stroke-width:0.579981;"/>
   </g>
   <g id="patch_5">
    <path clip-path="url(#p3dda1c8db4)" d="M 437.92349 157.199999 
Q 395.298805 107.981252 353.023823 59.166309 
" style="fill:none;stroke:#870a24;stroke-linecap:round;stroke-width:0.477786;"/>
    <path clip-path="url(#p3dda1c8db4)" d="M 354.13058 63.499332 
L 353.023823 59.166309 
L 357.154295 60.880717 
L 354.13058 63.499332 
z
" style="fill:#870a24;stroke:#870a24;stroke-linecap:round;stroke-width:0.477786;"/>
   </g>
   <g id="patch_6">
    <path clip-path="url(#p3dda1c8db4)" d="M 437.92349 157.199999 
Q 262.4741 157.200004 87.616952 157.200009 
" style="fill:none;stroke:#fdddcb;stroke-linecap:round;stroke-width:0.529717;"/>
    <path clip-path="url(#p3dda1c8db4)" d="M 91.616952 159.200009 
L 87.616952 157.200009 
L 91.616952 155.200009 
L 91.616952 159.200009 
z
" style="fill:#fdddcb;stroke:#fdddcb;stroke-linecap:round;stroke-width:0.529717;"/>
   </g>
   <g id="patch_7">
    <path clip-path="url(#p3dda1c8db4)" d="M 437.92349 157.199999 
Q 328.29033 101.117012 219.138826 45.280416 
" style="fill:none;stroke:#67001f;stroke-linecap:round;stroke-width:0.483902;"/>
    <path clip-path="url(#p3dda1c8db4)" d="M 221.789085 48.882655 
L 219.138826 45.280416 
L 223.610772 45.321552 
L 221.789085 48.882655 
z
" style="fill:#67001f;stroke:#67001f;stroke-linecap:round;stroke-width:0.483902;"/>
   </g>
   <g id="patch_8">
    <path clip-path="url(#p3dda1c8db4)" d="M 437.92349 157.199999 
Q 288.504029 115.938955 139.866871 74.893938 
" style="fill:none;stroke:#e37e64;stroke-linecap:round;stroke-width:0.725902;"/>
    <path clip-path="url(#p3dda1c8db4)" d="M 143.190204 77.886505 
L 139.866871 74.893938 
L 144.254925 74.030812 
L 143.190204 77.886505 
z
" style="fill:#e37e64;stroke:#e37e64;stroke-linecap:round;stroke-width:0.725902;"/>
   </g>
   <g id="patch_9">
    <path clip-path="url(#p3dda1c8db4)" d="M 437.92349 157.199999 
Q 306.897222 106.767968 177.273117 56.87563 
" style="fill:none;stroke:#f2a17f;stroke-linecap:round;stroke-width:1.343825;"/>
    <path clip-path="url(#p3dda1c8db4)" d="M 180.287722 60.178986 
L 177.273117 56.87563 
L 181.724564 56.44596 
L 180.287722 60.178986 
z
" style="fill:#f2a17f;stroke:#f2a17f;stroke-linecap:round;stroke-width:1.343825;"/>
   </g>
   <g id="patch_10">
    <path clip-path="url(#p3dda1c8db4)" d="M 437.92349 157.199999 
Q 351.215486 215.005337 264.925858 272.531757 
" style="fill:none;stroke:#de735c;stroke-linecap:round;stroke-width:0.44974;"/>
    <path clip-path="url(#p3dda1c8db4)" d="M 269.36346 271.977057 
L 264.925858 272.531757 
L 267.144659 268.648856 
L 269.36346 271.977057 
z
" style="fill:#de735c;stroke:#de735c;stroke-linecap:round;stroke-width:0.44974;"/>
   </g>
   <g id="patch_11">
    <path clip-path="url(#p3dda1c8db4)" d="M 437.92349 157.199999 
Q 274.38455 186.413416 112.924714 215.255437 
" style="fill:none;stroke:#f8bb9e;stroke-linecap:round;stroke-width:1.889045;"/>
    <path clip-path="url(#p3dda1c8db4)" d="M 117.214081 216.520874 
L 112.924714 215.255437 
L 116.510685 212.583206 
L 117.214081 216.520874 
z
" style="fill:#f8bb9e;stroke:#f8bb9e;stroke-linecap:round;stroke-width:1.889045;"/>
   </g>
   <g id="patch_12">
    <path clip-path="url(#p3dda1c8db4)" d="M 437.92349 157.199999 
Q 395.2988 206.418747 353.040685 255.214208 
" style="fill:none;stroke:#e48066;stroke-linecap:round;stroke-width:0.500839;"/>
    <path clip-path="url(#p3dda1c8db4)" d="M 357.171158 253.4998 
L 353.040685 255.214208 
L 354.147442 250.881185 
L 357.171158 253.4998 
z
" style="fill:#e48066;stroke:#e48066;stroke-linecap:round;stroke-width:0.500839;"/>
   </g>
   <g id="patch_13">
    <path clip-path="url(#p3dda1c8db4)" d="M 437.92349 157.199999 
Q 351.215482 99.394662 264.982396 41.905941 
" style="fill:none;stroke:#e58368;stroke-linecap:round;stroke-width:0.510527;"/>
    <path clip-path="url(#p3dda1c8db4)" d="M 267.201197 45.788842 
L 264.982396 41.905941 
L 269.419997 42.460641 
L 267.201197 45.788842 
z
" style="fill:#e58368;stroke:#e58368;stroke-linecap:round;stroke-width:0.510527;"/>
   </g>
   <g id="patch_14">
    <path clip-path="url(#p3dda1c8db4)" d="M 437.92349 157.199999 
Q 374.079113 212.669071 310.944195 267.521753 
" style="fill:none;stroke:#b72230;stroke-linecap:round;stroke-width:0.840604;"/>
    <path clip-path="url(#p3dda1c8db4)" d="M 315.27545 266.408096 
L 310.944195 267.521753 
L 312.652022 263.388555 
L 315.27545 266.408096 
z
" style="fill:#b72230;stroke:#b72230;stroke-linecap:round;stroke-width:0.840604;"/>
   </g>
   <g id="patch_15">
    <path clip-path="url(#p3dda1c8db4)" d="M 437.92349 157.199999 
Q 274.38455 127.986578 111.906788 98.962718 
" style="fill:none;stroke:#dc6e57;stroke-linecap:round;stroke-width:0.964172;"/>
    <path clip-path="url(#p3dda1c8db4)" d="M 115.492758 101.634949 
L 111.906788 98.962718 
L 116.196155 97.69728 
L 115.492758 101.634949 
z
" style="fill:#dc6e57;stroke:#dc6e57;stroke-linecap:round;stroke-width:0.964172;"/>
   </g>
   <g id="patch_16">
    <path clip-path="url(#p3dda1c8db4)" d="M 437.92349 157.199999 
Q 413.396503 196.675578 389.138721 235.717878 
" style="fill:none;stroke:#cf5246;stroke-linecap:round;stroke-width:0.456248;"/>
    <path clip-path="url(#p3dda1c8db4)" d="M 392.94852 233.375777 
L 389.138721 235.717878 
L 389.55092 231.264779 
L 392.94852 233.375777 
z
" style="fill:#cf5246;stroke:#cf5246;stroke-linecap:round;stroke-width:0.456248;"/>
   </g>
   <g id="patch_17">
    <path clip-path="url(#p3dda1c8db4)" d="M 414.007361 97.695868 
Q 361.42552 182.325061 309.103097 266.536728 
" style="fill:none;stroke:#bf3338;stroke-linecap:round;stroke-width:0.439661;"/>
    <path clip-path="url(#p3dda1c8db4)" d="M 312.912895 264.194627 
L 309.103097 266.536728 
L 309.515295 262.083629 
L 312.912895 264.194627 
z
" style="fill:#bf3338;stroke:#bf3338;stroke-linecap:round;stroke-width:0.439661;"/>
   </g>
   <g id="patch_18">
    <path clip-path="url(#p3dda1c8db4)" d="M 305.613507 42.246845 
Q 285.562097 40.486966 266.027225 38.772423 
" style="fill:none;stroke:#d7634f;stroke-linecap:round;stroke-width:0.463782;"/>
    <path clip-path="url(#p3dda1c8db4)" d="M 269.837043 41.114493 
L 266.027225 38.772423 
L 270.186771 37.129811 
L 269.837043 41.114493 
z
" style="fill:#d7634f;stroke:#d7634f;stroke-linecap:round;stroke-width:0.463782;"/>
   </g>
   <g id="patch_19">
    <path clip-path="url(#p3dda1c8db4)" d="M 305.613507 42.246845 
Q 262.472175 42.246845 220.028629 42.246845 
" style="fill:none;stroke:#7c0722;stroke-linecap:round;stroke-width:0.624119;"/>
    <path clip-path="url(#p3dda1c8db4)" d="M 224.028629 44.246845 
L 220.028629 42.246845 
L 224.028629 40.246845 
L 224.028629 44.246845 
z
" style="fill:#7c0722;stroke:#7c0722;stroke-linecap:round;stroke-width:0.624119;"/>
   </g>
   <g id="patch_20">
    <path clip-path="url(#p3dda1c8db4)" d="M 305.613507 42.246845 
Q 199.154771 83.222825 93.247825 123.986422 
" style="fill:none;stroke:#fcd5bf;stroke-linecap:round;stroke-width:0.528832;"/>
    <path clip-path="url(#p3dda1c8db4)" d="M 97.699273 124.416092 
L 93.247825 123.986422 
L 96.26243 120.683066 
L 97.699273 124.416092 
z
" style="fill:#fcd5bf;stroke:#fcd5bf;stroke-linecap:round;stroke-width:0.528832;"/>
   </g>
   <g id="patch_21">
    <path clip-path="url(#p3dda1c8db4)" d="M 305.613507 42.246845 
Q 240.932924 47.923752 178.093354 53.439075 
" style="fill:none;stroke:#f6af8e;stroke-linecap:round;stroke-width:1.652981;"/>
    <path clip-path="url(#p3dda1c8db4)" d="M 182.2529 55.081688 
L 178.093354 53.439075 
L 181.903171 51.097006 
L 182.2529 55.081688 
z
" style="fill:#f6af8e;stroke:#f6af8e;stroke-linecap:round;stroke-width:1.652981;"/>
   </g>
   <g id="patch_22">
    <path clip-path="url(#p3dda1c8db4)" d="M 305.613507 42.246845 
Q 208.166277 69.15615 111.531765 95.84103 
" style="fill:none;stroke:#c43b3c;stroke-linecap:round;stroke-width:0.754122;"/>
    <path clip-path="url(#p3dda1c8db4)" d="M 115.919818 96.704156 
L 111.531765 95.84103 
L 114.855098 92.848463 
L 115.919818 96.704156 
z
" style="fill:#c43b3c;stroke:#c43b3c;stroke-linecap:round;stroke-width:0.754122;"/>
   </g>
   <g id="patch_23">
    <path clip-path="url(#p3dda1c8db4)" d="M 305.613507 42.246845 
Q 239.499518 148.655715 174.08952 253.931529 
" style="fill:none;stroke:#bd2d35;stroke-linecap:round;stroke-width:1.193119;"/>
    <path clip-path="url(#p3dda1c8db4)" d="M 177.899318 251.589427 
L 174.08952 253.931529 
L 174.501717 249.478429 
L 177.899318 251.589427 
z
" style="fill:#bd2d35;stroke:#bd2d35;stroke-linecap:round;stroke-width:1.193119;"/>
   </g>
   <g id="patch_24">
    <path clip-path="url(#p3dda1c8db4)" d="M 305.613507 42.246845 
Q 207.525913 127.467003 110.501809 211.763182 
" style="fill:none;stroke:#f7b596;stroke-linecap:round;stroke-width:1.260079;"/>
    <path clip-path="url(#p3dda1c8db4)" d="M 114.833064 210.649524 
L 110.501809 211.763182 
L 112.209636 207.629984 
L 114.833064 210.649524 
z
" style="fill:#f7b596;stroke:#f7b596;stroke-linecap:round;stroke-width:1.260079;"/>
   </g>
   <g id="patch_25">
    <path clip-path="url(#p3dda1c8db4)" d="M 305.613507 42.246845 
Q 222.412528 57.109269 140.231743 71.789452 
" style="fill:none;stroke:#de735c;stroke-linecap:round;stroke-width:0.926934;"/>
    <path clip-path="url(#p3dda1c8db4)" d="M 144.52111 73.054889 
L 140.231743 71.789452 
L 143.817713 69.117221 
L 144.52111 73.054889 
z
" style="fill:#de735c;stroke:#de735c;stroke-linecap:round;stroke-width:0.926934;"/>
   </g>
   <g id="patch_26">
    <path clip-path="url(#p3dda1c8db4)" d="M 170.154885 54.135822 
Q 154.396353 62.197122 139.843548 69.641631 
" style="fill:none;stroke:#e6866a;stroke-linecap:round;stroke-width:1.211349;"/>
    <path clip-path="url(#p3dda1c8db4)" d="M 144.315494 69.600495 
L 139.843548 69.641631 
L 142.493807 66.039392 
L 144.315494 69.600495 
z
" style="fill:#e6866a;stroke:#e6866a;stroke-linecap:round;stroke-width:1.211349;"/>
   </g>
   <g id="patch_27">
    <path clip-path="url(#p3dda1c8db4)" d="M 170.154885 54.135822 
Q 140.031219 74.218265 110.813205 93.696941 
" style="fill:none;stroke:#c43b3c;stroke-linecap:round;stroke-width:0.973545;"/>
    <path clip-path="url(#p3dda1c8db4)" d="M 115.250807 93.142241 
L 110.813205 93.696941 
L 113.032006 89.81404 
L 115.250807 93.142241 
z
" style="fill:#c43b3c;stroke:#c43b3c;stroke-linecap:round;stroke-width:0.973545;"/>
   </g>
   <g id="patch_28">
    <path clip-path="url(#p3dda1c8db4)" d="M 170.154885 54.135822 
Q 256.348079 54.135818 342.057951 54.135815 
" style="fill:none;stroke:#a81529;stroke-linecap:round;stroke-width:0.432297;"/>
    <path clip-path="url(#p3dda1c8db4)" d="M 338.057951 52.135815 
L 342.057951 54.135815 
L 338.057952 56.135815 
L 338.057951 52.135815 
z
" style="fill:#a81529;stroke:#a81529;stroke-linecap:round;stroke-width:0.432297;"/>
   </g>
   <g id="patch_29">
    <path clip-path="url(#p3dda1c8db4)" d="M 170.154885 54.135822 
Q 211.769009 46.702174 252.575806 39.412741 
" style="fill:none;stroke:#eb9172;stroke-linecap:round;stroke-width:0.733527;"/>
    <path clip-path="url(#p3dda1c8db4)" d="M 248.286439 38.147304 
L 252.575806 39.412741 
L 248.989836 42.084972 
L 248.286439 38.147304 
z
" style="fill:#eb9172;stroke:#eb9172;stroke-linecap:round;stroke-width:0.733527;"/>
   </g>
   <g id="patch_30">
    <path clip-path="url(#p3dda1c8db4)" d="M 170.154885 54.135822 
Q 234.835467 48.458915 298.474389 42.873434 
" style="fill:none;stroke:#f6b191;stroke-linecap:round;stroke-width:0.935271;"/>
    <path clip-path="url(#p3dda1c8db4)" d="M 294.314843 41.230822 
L 298.474389 42.873434 
L 294.664572 45.215504 
L 294.314843 41.230822 
z
" style="fill:#f6b191;stroke:#f6b191;stroke-linecap:round;stroke-width:0.935271;"/>
   </g>
   <g id="patch_31">
    <path clip-path="url(#p3dda1c8db4)" d="M 170.154885 54.135822 
Q 188.729457 49.006596 206.539905 44.088378 
" style="fill:none;stroke:#7f0823;stroke-linecap:round;stroke-width:0.709033;"/>
    <path clip-path="url(#p3dda1c8db4)" d="M 202.151852 43.225251 
L 206.539905 44.088378 
L 203.216572 47.080945 
L 202.151852 43.225251 
z
" style="fill:#7f0823;stroke:#7f0823;stroke-linecap:round;stroke-width:0.709033;"/>
   </g>
   <g id="patch_32">
    <path clip-path="url(#p3dda1c8db4)" d="M 170.154885 54.135822 
Q 191.088894 160.142162 211.827045 265.156709 
" style="fill:none;stroke:#f8bda1;stroke-linecap:round;stroke-width:0.90422;"/>
    <path clip-path="url(#p3dda1c8db4)" d="M 213.014203 260.845021 
L 211.827045 265.156709 
L 209.089989 261.61997 
L 213.014203 260.845021 
z
" style="fill:#f8bda1;stroke:#f8bda1;stroke-linecap:round;stroke-width:0.90422;"/>
   </g>
   <g id="patch_33">
    <path clip-path="url(#p3dda1c8db4)" d="M 170.154885 54.135822 
Q 138.626931 132.578453 107.372506 210.340534 
" style="fill:none;stroke:#f8bda1;stroke-linecap:round;stroke-width:0.656029;"/>
    <path clip-path="url(#p3dda1c8db4)" d="M 110.719941 207.374952 
L 107.372506 210.340534 
L 107.008502 205.883236 
L 110.719941 207.374952 
z
" style="fill:#f8bda1;stroke:#f8bda1;stroke-linecap:round;stroke-width:0.656029;"/>
   </g>
   <g id="patch_34">
    <path clip-path="url(#p3dda1c8db4)" d="M 170.154885 54.135822 
Q 289.534166 133.72202 408.516548 213.043618 
" style="fill:none;stroke:#d86551;stroke-linecap:round;stroke-width:0.426655;"/>
    <path clip-path="url(#p3dda1c8db4)" d="M 406.297747 209.160716 
L 408.516548 213.043618 
L 404.078946 212.488917 
L 406.297747 209.160716 
z
" style="fill:#d86551;stroke:#d86551;stroke-linecap:round;stroke-width:0.426655;"/>
   </g>
   <g id="patch_35">
    <path clip-path="url(#p3dda1c8db4)" d="M 86.981362 188.001609 
Q 94.281719 199.751352 101.25642 210.976961 
" style="fill:none;stroke:#f8bda1;stroke-linecap:round;stroke-width:0.55192;"/>
    <path clip-path="url(#p3dda1c8db4)" d="M 100.844221 206.523862 
L 101.25642 210.976961 
L 97.446621 208.634861 
L 100.844221 206.523862 
z
" style="fill:#f8bda1;stroke:#f8bda1;stroke-linecap:round;stroke-width:0.55192;"/>
   </g>
   <g id="patch_36">
    <path clip-path="url(#p3dda1c8db4)" d="M 133.183759 241.351542 
Q 119.592765 172.52895 106.109505 104.251903 
" style="fill:none;stroke:#c6413e;stroke-linecap:round;stroke-width:0.497375;"/>
    <path clip-path="url(#p3dda1c8db4)" d="M 104.922346 108.563591 
L 106.109505 104.251903 
L 108.84656 107.788643 
L 104.922346 108.563591 
z
" style="fill:#c6413e;stroke:#c6413e;stroke-linecap:round;stroke-width:0.497375;"/>
   </g>
   <g id="patch_37">
    <path clip-path="url(#p3dda1c8db4)" d="M 133.183759 241.351542 
Q 172.053899 144.641333 210.750658 48.362501 
" style="fill:none;stroke:#b61f2e;stroke-linecap:round;stroke-width:0.415833;"/>
    <path clip-path="url(#p3dda1c8db4)" d="M 207.403222 51.328082 
L 210.750658 48.362501 
L 211.114662 52.819798 
L 207.403222 51.328082 
z
" style="fill:#b61f2e;stroke:#b61f2e;stroke-linecap:round;stroke-width:0.415833;"/>
   </g>
   <g id="patch_38">
    <path clip-path="url(#p3dda1c8db4)" d="M 133.183759 241.351542 
Q 133.183764 160.262457 133.183769 79.746646 
" style="fill:none;stroke:#d86551;stroke-linecap:round;stroke-width:0.512751;"/>
    <path clip-path="url(#p3dda1c8db4)" d="M 131.183769 83.746646 
L 133.183769 79.746646 
L 135.183769 83.746646 
L 131.183769 83.746646 
z
" style="fill:#d86551;stroke:#d86551;stroke-linecap:round;stroke-width:0.512751;"/>
   </g>
   <g id="patch_39">
    <path clip-path="url(#p3dda1c8db4)" d="M 133.183759 241.351542 
Q 151.076134 150.747486 168.791372 61.040425 
" style="fill:none;stroke:#ea8e70;stroke-linecap:round;stroke-width:0.817791;"/>
    <path clip-path="url(#p3dda1c8db4)" d="M 166.054317 64.577165 
L 168.791372 61.040425 
L 169.97853 65.352114 
L 166.054317 64.577165 
z
" style="fill:#ea8e70;stroke:#ea8e70;stroke-linecap:round;stroke-width:0.817791;"/>
   </g>
   <g id="patch_40">
    <path clip-path="url(#p3dda1c8db4)" d="M 213.208697 272.153162 
Q 192.274687 166.146821 171.449999 60.694065 
" style="fill:none;stroke:#f5ac8b;stroke-linecap:round;stroke-width:0.504703;"/>
    <path clip-path="url(#p3dda1c8db4)" d="M 170.262841 65.005753 
L 171.449999 60.694065 
L 174.187055 64.230804 
L 170.262841 65.005753 
z
" style="fill:#f5ac8b;stroke:#f5ac8b;stroke-linecap:round;stroke-width:0.504703;"/>
   </g>
   <g id="patch_41">
    <path clip-path="url(#p3dda1c8db4)" d="M 259.411097 276.208264 
Q 342.898864 233.499976 424.122415 191.94995 
" style="fill:none;stroke:#67001f;stroke-linecap:round;stroke-width:2.274773;"/>
    <path clip-path="url(#p3dda1c8db4)" d="M 419.650468 191.991086 
L 424.122415 191.94995 
L 421.472156 195.552189 
L 419.650468 191.991086 
z
" style="fill:#67001f;stroke:#67001f;stroke-linecap:round;stroke-width:2.274773;"/>
   </g>
   <g id="PathCollection_1">
    <defs>
     <path d="M 0 -6.123724 
L -5.303301 -3.061862 
L -5.303301 3.061862 
L -0 6.123724 
L 5.303301 3.061862 
L 5.303301 -3.061862 
z
" id="m8dec5c9446" style="stroke:#ffffff;"/>
    </defs>
    <g clip-path="url(#p3dda1c8db4)">
     <use style="fill:#ffffff;stroke:#ffffff;" x="437.92349" xlink:href="#m8dec5c9446" y="157.199999"/>
     <use style="fill:#ffffff;stroke:#ffffff;" x="431.840826" xlink:href="#m8dec5c9446" y="126.398395"/>
     <use style="fill:#ffffff;stroke:#ffffff;" x="414.007361" xlink:href="#m8dec5c9446" y="97.695868"/>
     <use style="fill:#ffffff;stroke:#ffffff;" x="385.638418" xlink:href="#m8dec5c9446" y="73.048451"/>
     <use style="fill:#ffffff;stroke:#ffffff;" x="348.667287" xlink:href="#m8dec5c9446" y="54.135814"/>
     <use style="fill:#ffffff;stroke:#ffffff;" x="305.613507" xlink:href="#m8dec5c9446" y="42.246845"/>
     <use style="fill:#ffffff;stroke:#ffffff;" x="259.411087" xlink:href="#m8dec5c9446" y="38.191736"/>
     <use style="fill:#ffffff;stroke:#ffffff;" x="213.208686" xlink:href="#m8dec5c9446" y="42.246845"/>
     <use style="fill:#ffffff;stroke:#ffffff;" x="170.154885" xlink:href="#m8dec5c9446" y="54.135822"/>
     <use style="fill:#ffffff;stroke:#ffffff;" x="133.18377" xlink:href="#m8dec5c9446" y="73.048451"/>
     <use style="fill:#ffffff;stroke:#ffffff;" x="104.814826" xlink:href="#m8dec5c9446" y="97.695861"/>
     <use style="fill:#ffffff;stroke:#ffffff;" x="86.981362" xlink:href="#m8dec5c9446" y="126.398384"/>
     <use style="fill:#ffffff;stroke:#ffffff;" x="80.898697" xlink:href="#m8dec5c9446" y="157.20001"/>
     <use style="fill:#ffffff;stroke:#ffffff;" x="86.981362" xlink:href="#m8dec5c9446" y="188.001609"/>
     <use style="fill:#ffffff;stroke:#ffffff;" x="104.814826" xlink:href="#m8dec5c9446" y="216.704129"/>
     <use style="fill:#ffffff;stroke:#ffffff;" x="133.183759" xlink:href="#m8dec5c9446" y="241.351542"/>
     <use style="fill:#ffffff;stroke:#ffffff;" x="170.154911" xlink:href="#m8dec5c9446" y="260.264186"/>
     <use style="fill:#ffffff;stroke:#ffffff;" x="213.208697" xlink:href="#m8dec5c9446" y="272.153162"/>
     <use style="fill:#ffffff;stroke:#ffffff;" x="259.411097" xlink:href="#m8dec5c9446" y="276.208264"/>
     <use style="fill:#ffffff;stroke:#ffffff;" x="305.613496" xlink:href="#m8dec5c9446" y="272.153155"/>
     <use style="fill:#ffffff;stroke:#ffffff;" x="348.667276" xlink:href="#m8dec5c9446" y="260.264186"/>
     <use style="fill:#ffffff;stroke:#ffffff;" x="385.638397" xlink:href="#m8dec5c9446" y="241.351564"/>
     <use style="fill:#ffffff;stroke:#ffffff;" x="414.007351" xlink:href="#m8dec5c9446" y="216.704154"/>
     <use style="fill:#ffffff;stroke:#ffffff;" x="431.840836" xlink:href="#m8dec5c9446" y="188.00158"/>
    </g>
   </g>
   <g id="text_1">
    <g clip-path="url(#p3dda1c8db4)">
     <!-- India -->
     <defs>
      <path d="M 9.8125 72.90625 
L 19.671875 72.90625 
L 19.671875 0 
L 9.8125 0 
z
" id="DejaVuSans-49"/>
      <path d="M 54.890625 33.015625 
L 54.890625 0 
L 45.90625 0 
L 45.90625 32.71875 
Q 45.90625 40.484375 42.875 44.328125 
Q 39.84375 48.1875 33.796875 48.1875 
Q 26.515625 48.1875 22.3125 43.546875 
Q 18.109375 38.921875 18.109375 30.90625 
L 18.109375 0 
L 9.078125 0 
L 9.078125 54.6875 
L 18.109375 54.6875 
L 18.109375 46.1875 
Q 21.34375 51.125 25.703125 53.5625 
Q 30.078125 56 35.796875 56 
Q 45.21875 56 50.046875 50.171875 
Q 54.890625 44.34375 54.890625 33.015625 
z
" id="DejaVuSans-6e"/>
      <path d="M 45.40625 46.390625 
L 45.40625 75.984375 
L 54.390625 75.984375 
L 54.390625 0 
L 45.40625 0 
L 45.40625 8.203125 
Q 42.578125 3.328125 38.25 0.953125 
Q 33.9375 -1.421875 27.875 -1.421875 
Q 17.96875 -1.421875 11.734375 6.484375 
Q 5.515625 14.40625 5.515625 27.296875 
Q 5.515625 40.1875 11.734375 48.09375 
Q 17.96875 56 27.875 56 
Q 33.9375 56 38.25 53.625 
Q 42.578125 51.265625 45.40625 46.390625 
z
M 14.796875 27.296875 
Q 14.796875 17.390625 18.875 11.75 
Q 22.953125 6.109375 30.078125 6.109375 
Q 37.203125 6.109375 41.296875 11.75 
Q 45.40625 17.390625 45.40625 27.296875 
Q 45.40625 37.203125 41.296875 42.84375 
Q 37.203125 48.484375 30.078125 48.484375 
Q 22.953125 48.484375 18.875 42.84375 
Q 14.796875 37.203125 14.796875 27.296875 
z
" id="DejaVuSans-64"/>
      <path d="M 9.421875 54.6875 
L 18.40625 54.6875 
L 18.40625 0 
L 9.421875 0 
z
M 9.421875 75.984375 
L 18.40625 75.984375 
L 18.40625 64.59375 
L 9.421875 64.59375 
z
" id="DejaVuSans-69"/>
      <path d="M 34.28125 27.484375 
Q 23.390625 27.484375 19.1875 25 
Q 14.984375 22.515625 14.984375 16.5 
Q 14.984375 11.71875 18.140625 8.90625 
Q 21.296875 6.109375 26.703125 6.109375 
Q 34.1875 6.109375 38.703125 11.40625 
Q 43.21875 16.703125 43.21875 25.484375 
L 43.21875 27.484375 
z
M 52.203125 31.203125 
L 52.203125 0 
L 43.21875 0 
L 43.21875 8.296875 
Q 40.140625 3.328125 35.546875 0.953125 
Q 30.953125 -1.421875 24.3125 -1.421875 
Q 15.921875 -1.421875 10.953125 3.296875 
Q 6 8.015625 6 15.921875 
Q 6 25.140625 12.171875 29.828125 
Q 18.359375 34.515625 30.609375 34.515625 
L 43.21875 34.515625 
L 43.21875 35.40625 
Q 43.21875 41.609375 39.140625 45 
Q 35.0625 48.390625 27.6875 48.390625 
Q 23 48.390625 18.546875 47.265625 
Q 14.109375 46.140625 10.015625 43.890625 
L 10.015625 52.203125 
Q 14.9375 54.109375 19.578125 55.046875 
Q 24.21875 56 28.609375 56 
Q 40.484375 56 46.34375 49.84375 
Q 52.203125 43.703125 52.203125 31.203125 
z
" id="DejaVuSans-61"/>
     </defs>
     <g transform="translate(429.333725 159.131562)scale(0.07 -0.07)">
      <use xlink:href="#DejaVuSans-49"/>
      <use x="29.492188" xlink:href="#DejaVuSans-6e"/>
      <use x="92.871094" xlink:href="#DejaVuSans-64"/>
      <use x="156.347656" xlink:href="#DejaVuSans-69"/>
      <use x="184.130859" xlink:href="#DejaVuSans-61"/>
     </g>
    </g>
   </g>
   <g id="text_2">
    <g clip-path="url(#p3dda1c8db4)">
     <!-- Nepal -->
     <defs>
      <path d="M 9.8125 72.90625 
L 23.09375 72.90625 
L 55.421875 11.921875 
L 55.421875 72.90625 
L 64.984375 72.90625 
L 64.984375 0 
L 51.703125 0 
L 19.390625 60.984375 
L 19.390625 0 
L 9.8125 0 
z
" id="DejaVuSans-4e"/>
      <path d="M 56.203125 29.59375 
L 56.203125 25.203125 
L 14.890625 25.203125 
Q 15.484375 15.921875 20.484375 11.0625 
Q 25.484375 6.203125 34.421875 6.203125 
Q 39.59375 6.203125 44.453125 7.46875 
Q 49.3125 8.734375 54.109375 11.28125 
L 54.109375 2.78125 
Q 49.265625 0.734375 44.1875 -0.34375 
Q 39.109375 -1.421875 33.890625 -1.421875 
Q 20.796875 -1.421875 13.15625 6.1875 
Q 5.515625 13.8125 5.515625 26.8125 
Q 5.515625 40.234375 12.765625 48.109375 
Q 20.015625 56 32.328125 56 
Q 43.359375 56 49.78125 48.890625 
Q 56.203125 41.796875 56.203125 29.59375 
z
M 47.21875 32.234375 
Q 47.125 39.59375 43.09375 43.984375 
Q 39.0625 48.390625 32.421875 48.390625 
Q 24.90625 48.390625 20.390625 44.140625 
Q 15.875 39.890625 15.1875 32.171875 
z
" id="DejaVuSans-65"/>
      <path d="M 18.109375 8.203125 
L 18.109375 -20.796875 
L 9.078125 -20.796875 
L 9.078125 54.6875 
L 18.109375 54.6875 
L 18.109375 46.390625 
Q 20.953125 51.265625 25.265625 53.625 
Q 29.59375 56 35.59375 56 
Q 45.5625 56 51.78125 48.09375 
Q 58.015625 40.1875 58.015625 27.296875 
Q 58.015625 14.40625 51.78125 6.484375 
Q 45.5625 -1.421875 35.59375 -1.421875 
Q 29.59375 -1.421875 25.265625 0.953125 
Q 20.953125 3.328125 18.109375 8.203125 
z
M 48.6875 27.296875 
Q 48.6875 37.203125 44.609375 42.84375 
Q 40.53125 48.484375 33.40625 48.484375 
Q 26.265625 48.484375 22.1875 42.84375 
Q 18.109375 37.203125 18.109375 27.296875 
Q 18.109375 17.390625 22.1875 11.75 
Q 26.265625 6.109375 33.40625 6.109375 
Q 40.53125 6.109375 44.609375 11.75 
Q 48.6875 17.390625 48.6875 27.296875 
z
" id="DejaVuSans-70"/>
      <path d="M 9.421875 75.984375 
L 18.40625 75.984375 
L 18.40625 0 
L 9.421875 0 
z
" id="DejaVuSans-6c"/>
     </defs>
     <g transform="translate(421.729654 128.329957)scale(0.07 -0.07)">
      <use xlink:href="#DejaVuSans-4e"/>
      <use x="74.804688" xlink:href="#DejaVuSans-65"/>
      <use x="136.328125" xlink:href="#DejaVuSans-70"/>
      <use x="199.804688" xlink:href="#DejaVuSans-61"/>
      <use x="261.083984" xlink:href="#DejaVuSans-6c"/>
     </g>
    </g>
   </g>
   <g id="text_3">
    <g clip-path="url(#p3dda1c8db4)">
     <!-- Pakistan -->
     <defs>
      <path d="M 19.671875 64.796875 
L 19.671875 37.40625 
L 32.078125 37.40625 
Q 38.96875 37.40625 42.71875 40.96875 
Q 46.484375 44.53125 46.484375 51.125 
Q 46.484375 57.671875 42.71875 61.234375 
Q 38.96875 64.796875 32.078125 64.796875 
z
M 9.8125 72.90625 
L 32.078125 72.90625 
Q 44.34375 72.90625 50.609375 67.359375 
Q 56.890625 61.8125 56.890625 51.125 
Q 56.890625 40.328125 50.609375 34.8125 
Q 44.34375 29.296875 32.078125 29.296875 
L 19.671875 29.296875 
L 19.671875 0 
L 9.8125 0 
z
" id="DejaVuSans-50"/>
      <path d="M 9.078125 75.984375 
L 18.109375 75.984375 
L 18.109375 31.109375 
L 44.921875 54.6875 
L 56.390625 54.6875 
L 27.390625 29.109375 
L 57.625 0 
L 45.90625 0 
L 18.109375 26.703125 
L 18.109375 0 
L 9.078125 0 
z
" id="DejaVuSans-6b"/>
      <path d="M 44.28125 53.078125 
L 44.28125 44.578125 
Q 40.484375 46.53125 36.375 47.5 
Q 32.28125 48.484375 27.875 48.484375 
Q 21.1875 48.484375 17.84375 46.4375 
Q 14.5 44.390625 14.5 40.28125 
Q 14.5 37.15625 16.890625 35.375 
Q 19.28125 33.59375 26.515625 31.984375 
L 29.59375 31.296875 
Q 39.15625 29.25 43.1875 25.515625 
Q 47.21875 21.78125 47.21875 15.09375 
Q 47.21875 7.46875 41.1875 3.015625 
Q 35.15625 -1.421875 24.609375 -1.421875 
Q 20.21875 -1.421875 15.453125 -0.5625 
Q 10.6875 0.296875 5.421875 2 
L 5.421875 11.28125 
Q 10.40625 8.6875 15.234375 7.390625 
Q 20.0625 6.109375 24.8125 6.109375 
Q 31.15625 6.109375 34.5625 8.28125 
Q 37.984375 10.453125 37.984375 14.40625 
Q 37.984375 18.0625 35.515625 20.015625 
Q 33.0625 21.96875 24.703125 23.78125 
L 21.578125 24.515625 
Q 13.234375 26.265625 9.515625 29.90625 
Q 5.8125 33.546875 5.8125 39.890625 
Q 5.8125 47.609375 11.28125 51.796875 
Q 16.75 56 26.8125 56 
Q 31.78125 56 36.171875 55.265625 
Q 40.578125 54.546875 44.28125 53.078125 
z
" id="DejaVuSans-73"/>
      <path d="M 18.3125 70.21875 
L 18.3125 54.6875 
L 36.8125 54.6875 
L 36.8125 47.703125 
L 18.3125 47.703125 
L 18.3125 18.015625 
Q 18.3125 11.328125 20.140625 9.421875 
Q 21.96875 7.515625 27.59375 7.515625 
L 36.8125 7.515625 
L 36.8125 0 
L 27.59375 0 
Q 17.1875 0 13.234375 3.875 
Q 9.28125 7.765625 9.28125 18.015625 
L 9.28125 47.703125 
L 2.6875 47.703125 
L 2.6875 54.6875 
L 9.28125 54.6875 
L 9.28125 70.21875 
z
" id="DejaVuSans-74"/>
     </defs>
     <g transform="translate(399.196893 99.62743)scale(0.07 -0.07)">
      <use xlink:href="#DejaVuSans-50"/>
      <use x="60.240234" xlink:href="#DejaVuSans-61"/>
      <use x="121.519531" xlink:href="#DejaVuSans-6b"/>
      <use x="179.429688" xlink:href="#DejaVuSans-69"/>
      <use x="207.212891" xlink:href="#DejaVuSans-73"/>
      <use x="259.3125" xlink:href="#DejaVuSans-74"/>
      <use x="298.521484" xlink:href="#DejaVuSans-61"/>
      <use x="359.800781" xlink:href="#DejaVuSans-6e"/>
     </g>
    </g>
   </g>
   <g id="text_4">
    <g clip-path="url(#p3dda1c8db4)">
     <!-- Bangladesh -->
     <defs>
      <path d="M 19.671875 34.8125 
L 19.671875 8.109375 
L 35.5 8.109375 
Q 43.453125 8.109375 47.28125 11.40625 
Q 51.125 14.703125 51.125 21.484375 
Q 51.125 28.328125 47.28125 31.5625 
Q 43.453125 34.8125 35.5 34.8125 
z
M 19.671875 64.796875 
L 19.671875 42.828125 
L 34.28125 42.828125 
Q 41.5 42.828125 45.03125 45.53125 
Q 48.578125 48.25 48.578125 53.8125 
Q 48.578125 59.328125 45.03125 62.0625 
Q 41.5 64.796875 34.28125 64.796875 
z
M 9.8125 72.90625 
L 35.015625 72.90625 
Q 46.296875 72.90625 52.390625 68.21875 
Q 58.5 63.53125 58.5 54.890625 
Q 58.5 48.1875 55.375 44.234375 
Q 52.25 40.28125 46.1875 39.3125 
Q 53.46875 37.75 57.5 32.78125 
Q 61.53125 27.828125 61.53125 20.40625 
Q 61.53125 10.640625 54.890625 5.3125 
Q 48.25 0 35.984375 0 
L 9.8125 0 
z
" id="DejaVuSans-42"/>
      <path d="M 45.40625 27.984375 
Q 45.40625 37.75 41.375 43.109375 
Q 37.359375 48.484375 30.078125 48.484375 
Q 22.859375 48.484375 18.828125 43.109375 
Q 14.796875 37.75 14.796875 27.984375 
Q 14.796875 18.265625 18.828125 12.890625 
Q 22.859375 7.515625 30.078125 7.515625 
Q 37.359375 7.515625 41.375 12.890625 
Q 45.40625 18.265625 45.40625 27.984375 
z
M 54.390625 6.78125 
Q 54.390625 -7.171875 48.1875 -13.984375 
Q 42 -20.796875 29.203125 -20.796875 
Q 24.46875 -20.796875 20.265625 -20.09375 
Q 16.0625 -19.390625 12.109375 -17.921875 
L 12.109375 -9.1875 
Q 16.0625 -11.328125 19.921875 -12.34375 
Q 23.78125 -13.375 27.78125 -13.375 
Q 36.625 -13.375 41.015625 -8.765625 
Q 45.40625 -4.15625 45.40625 5.171875 
L 45.40625 9.625 
Q 42.625 4.78125 38.28125 2.390625 
Q 33.9375 0 27.875 0 
Q 17.828125 0 11.671875 7.65625 
Q 5.515625 15.328125 5.515625 27.984375 
Q 5.515625 40.671875 11.671875 48.328125 
Q 17.828125 56 27.875 56 
Q 33.9375 56 38.28125 53.609375 
Q 42.625 51.21875 45.40625 46.390625 
L 45.40625 54.6875 
L 54.390625 54.6875 
z
" id="DejaVuSans-67"/>
      <path d="M 54.890625 33.015625 
L 54.890625 0 
L 45.90625 0 
L 45.90625 32.71875 
Q 45.90625 40.484375 42.875 44.328125 
Q 39.84375 48.1875 33.796875 48.1875 
Q 26.515625 48.1875 22.3125 43.546875 
Q 18.109375 38.921875 18.109375 30.90625 
L 18.109375 0 
L 9.078125 0 
L 9.078125 75.984375 
L 18.109375 75.984375 
L 18.109375 46.1875 
Q 21.34375 51.125 25.703125 53.5625 
Q 30.078125 56 35.796875 56 
Q 45.21875 56 50.046875 50.171875 
Q 54.890625 44.34375 54.890625 33.015625 
z
" id="DejaVuSans-68"/>
     </defs>
     <g transform="translate(365.118027 74.980013)scale(0.07 -0.07)">
      <use xlink:href="#DejaVuSans-42"/>
      <use x="68.603516" xlink:href="#DejaVuSans-61"/>
      <use x="129.882812" xlink:href="#DejaVuSans-6e"/>
      <use x="193.261719" xlink:href="#DejaVuSans-67"/>
      <use x="256.738281" xlink:href="#DejaVuSans-6c"/>
      <use x="284.521484" xlink:href="#DejaVuSans-61"/>
      <use x="345.800781" xlink:href="#DejaVuSans-64"/>
      <use x="409.277344" xlink:href="#DejaVuSans-65"/>
      <use x="470.800781" xlink:href="#DejaVuSans-73"/>
      <use x="522.900391" xlink:href="#DejaVuSans-68"/>
     </g>
    </g>
   </g>
   <g id="text_5">
    <g clip-path="url(#p3dda1c8db4)">
     <!-- Turkey -->
     <defs>
      <path d="M -0.296875 72.90625 
L 61.375 72.90625 
L 61.375 64.59375 
L 35.5 64.59375 
L 35.5 0 
L 25.59375 0 
L 25.59375 64.59375 
L -0.296875 64.59375 
z
" id="DejaVuSans-54"/>
      <path d="M 8.5 21.578125 
L 8.5 54.6875 
L 17.484375 54.6875 
L 17.484375 21.921875 
Q 17.484375 14.15625 20.5 10.265625 
Q 23.53125 6.390625 29.59375 6.390625 
Q 36.859375 6.390625 41.078125 11.03125 
Q 45.3125 15.671875 45.3125 23.6875 
L 45.3125 54.6875 
L 54.296875 54.6875 
L 54.296875 0 
L 45.3125 0 
L 45.3125 8.40625 
Q 42.046875 3.421875 37.71875 1 
Q 33.40625 -1.421875 27.6875 -1.421875 
Q 18.265625 -1.421875 13.375 4.4375 
Q 8.5 10.296875 8.5 21.578125 
z
M 31.109375 56 
z
" id="DejaVuSans-75"/>
      <path d="M 41.109375 46.296875 
Q 39.59375 47.171875 37.8125 47.578125 
Q 36.03125 48 33.890625 48 
Q 26.265625 48 22.1875 43.046875 
Q 18.109375 38.09375 18.109375 28.8125 
L 18.109375 0 
L 9.078125 0 
L 9.078125 54.6875 
L 18.109375 54.6875 
L 18.109375 46.1875 
Q 20.953125 51.171875 25.484375 53.578125 
Q 30.03125 56 36.53125 56 
Q 37.453125 56 38.578125 55.875 
Q 39.703125 55.765625 41.0625 55.515625 
z
" id="DejaVuSans-72"/>
      <path d="M 32.171875 -5.078125 
Q 28.375 -14.84375 24.75 -17.8125 
Q 21.140625 -20.796875 15.09375 -20.796875 
L 7.90625 -20.796875 
L 7.90625 -13.28125 
L 13.1875 -13.28125 
Q 16.890625 -13.28125 18.9375 -11.515625 
Q 21 -9.765625 23.484375 -3.21875 
L 25.09375 0.875 
L 2.984375 54.6875 
L 12.5 54.6875 
L 29.59375 11.921875 
L 46.6875 54.6875 
L 56.203125 54.6875 
z
" id="DejaVuSans-79"/>
     </defs>
     <g transform="translate(336.630568 56.067377)scale(0.07 -0.07)">
      <use xlink:href="#DejaVuSans-54"/>
      <use x="60.849609" xlink:href="#DejaVuSans-75"/>
      <use x="124.228516" xlink:href="#DejaVuSans-72"/>
      <use x="165.341797" xlink:href="#DejaVuSans-6b"/>
      <use x="223.205078" xlink:href="#DejaVuSans-65"/>
      <use x="284.728516" xlink:href="#DejaVuSans-79"/>
     </g>
    </g>
   </g>
   <g id="text_6">
    <g clip-path="url(#p3dda1c8db4)">
     <!-- Australia -->
     <defs>
      <path d="M 34.1875 63.1875 
L 20.796875 26.90625 
L 47.609375 26.90625 
z
M 28.609375 72.90625 
L 39.796875 72.90625 
L 67.578125 0 
L 57.328125 0 
L 50.6875 18.703125 
L 17.828125 18.703125 
L 11.1875 0 
L 0.78125 0 
z
" id="DejaVuSans-41"/>
     </defs>
     <g transform="translate(290.132569 44.178408)scale(0.07 -0.07)">
      <use xlink:href="#DejaVuSans-41"/>
      <use x="68.408203" xlink:href="#DejaVuSans-75"/>
      <use x="131.787109" xlink:href="#DejaVuSans-73"/>
      <use x="183.886719" xlink:href="#DejaVuSans-74"/>
      <use x="223.095703" xlink:href="#DejaVuSans-72"/>
      <use x="264.208984" xlink:href="#DejaVuSans-61"/>
      <use x="325.488281" xlink:href="#DejaVuSans-6c"/>
      <use x="353.271484" xlink:href="#DejaVuSans-69"/>
      <use x="381.054688" xlink:href="#DejaVuSans-61"/>
     </g>
    </g>
   </g>
   <g id="text_7">
    <g clip-path="url(#p3dda1c8db4)">
     <!-- Germany -->
     <defs>
      <path d="M 59.515625 10.40625 
L 59.515625 29.984375 
L 43.40625 29.984375 
L 43.40625 38.09375 
L 69.28125 38.09375 
L 69.28125 6.78125 
Q 63.578125 2.734375 56.6875 0.65625 
Q 49.8125 -1.421875 42 -1.421875 
Q 24.90625 -1.421875 15.25 8.5625 
Q 5.609375 18.5625 5.609375 36.375 
Q 5.609375 54.25 15.25 64.234375 
Q 24.90625 74.21875 42 74.21875 
Q 49.125 74.21875 55.546875 72.453125 
Q 61.96875 70.703125 67.390625 67.28125 
L 67.390625 56.78125 
Q 61.921875 61.421875 55.765625 63.765625 
Q 49.609375 66.109375 42.828125 66.109375 
Q 29.4375 66.109375 22.71875 58.640625 
Q 16.015625 51.171875 16.015625 36.375 
Q 16.015625 21.625 22.71875 14.15625 
Q 29.4375 6.6875 42.828125 6.6875 
Q 48.046875 6.6875 52.140625 7.59375 
Q 56.25 8.5 59.515625 10.40625 
z
" id="DejaVuSans-47"/>
      <path d="M 52 44.1875 
Q 55.375 50.25 60.0625 53.125 
Q 64.75 56 71.09375 56 
Q 79.640625 56 84.28125 50.015625 
Q 88.921875 44.046875 88.921875 33.015625 
L 88.921875 0 
L 79.890625 0 
L 79.890625 32.71875 
Q 79.890625 40.578125 77.09375 44.375 
Q 74.3125 48.1875 68.609375 48.1875 
Q 61.625 48.1875 57.5625 43.546875 
Q 53.515625 38.921875 53.515625 30.90625 
L 53.515625 0 
L 44.484375 0 
L 44.484375 32.71875 
Q 44.484375 40.625 41.703125 44.40625 
Q 38.921875 48.1875 33.109375 48.1875 
Q 26.21875 48.1875 22.15625 43.53125 
Q 18.109375 38.875 18.109375 30.90625 
L 18.109375 0 
L 9.078125 0 
L 9.078125 54.6875 
L 18.109375 54.6875 
L 18.109375 46.1875 
Q 21.1875 51.21875 25.484375 53.609375 
Q 29.78125 56 35.6875 56 
Q 41.65625 56 45.828125 52.96875 
Q 50 49.953125 52 44.1875 
z
" id="DejaVuSans-6d"/>
     </defs>
     <g transform="translate(243.263509 40.123298)scale(0.07 -0.07)">
      <use xlink:href="#DejaVuSans-47"/>
      <use x="77.490234" xlink:href="#DejaVuSans-65"/>
      <use x="139.013672" xlink:href="#DejaVuSans-72"/>
      <use x="180.111328" xlink:href="#DejaVuSans-6d"/>
      <use x="277.523438" xlink:href="#DejaVuSans-61"/>
      <use x="338.802734" xlink:href="#DejaVuSans-6e"/>
      <use x="402.181641" xlink:href="#DejaVuSans-79"/>
     </g>
    </g>
   </g>
   <g id="text_8">
    <g clip-path="url(#p3dda1c8db4)">
     <!-- Syria -->
     <defs>
      <path d="M 53.515625 70.515625 
L 53.515625 60.890625 
Q 47.90625 63.578125 42.921875 64.890625 
Q 37.9375 66.21875 33.296875 66.21875 
Q 25.25 66.21875 20.875 63.09375 
Q 16.5 59.96875 16.5 54.203125 
Q 16.5 49.359375 19.40625 46.890625 
Q 22.3125 44.4375 30.421875 42.921875 
L 36.375 41.703125 
Q 47.40625 39.59375 52.65625 34.296875 
Q 57.90625 29 57.90625 20.125 
Q 57.90625 9.515625 50.796875 4.046875 
Q 43.703125 -1.421875 29.984375 -1.421875 
Q 24.8125 -1.421875 18.96875 -0.25 
Q 13.140625 0.921875 6.890625 3.21875 
L 6.890625 13.375 
Q 12.890625 10.015625 18.65625 8.296875 
Q 24.421875 6.59375 29.984375 6.59375 
Q 38.421875 6.59375 43.015625 9.90625 
Q 47.609375 13.234375 47.609375 19.390625 
Q 47.609375 24.75 44.3125 27.78125 
Q 41.015625 30.8125 33.5 32.328125 
L 27.484375 33.5 
Q 16.453125 35.6875 11.515625 40.375 
Q 6.59375 45.0625 6.59375 53.421875 
Q 6.59375 63.09375 13.40625 68.65625 
Q 20.21875 74.21875 32.171875 74.21875 
Q 37.3125 74.21875 42.625 73.28125 
Q 47.953125 72.359375 53.515625 70.515625 
z
" id="DejaVuSans-53"/>
     </defs>
     <g transform="translate(204.359155 44.178408)scale(0.07 -0.07)">
      <use xlink:href="#DejaVuSans-53"/>
      <use x="63.476562" xlink:href="#DejaVuSans-79"/>
      <use x="122.65625" xlink:href="#DejaVuSans-72"/>
      <use x="163.769531" xlink:href="#DejaVuSans-69"/>
      <use x="191.552734" xlink:href="#DejaVuSans-61"/>
     </g>
    </g>
   </g>
   <g id="text_9">
    <g clip-path="url(#p3dda1c8db4)">
     <!-- United -->
     <defs>
      <path d="M 8.6875 72.90625 
L 18.609375 72.90625 
L 18.609375 28.609375 
Q 18.609375 16.890625 22.84375 11.734375 
Q 27.09375 6.59375 36.625 6.59375 
Q 46.09375 6.59375 50.34375 11.734375 
Q 54.59375 16.890625 54.59375 28.609375 
L 54.59375 72.90625 
L 64.5 72.90625 
L 64.5 27.390625 
Q 64.5 13.140625 57.4375 5.859375 
Q 50.390625 -1.421875 36.625 -1.421875 
Q 22.796875 -1.421875 15.734375 5.859375 
Q 8.6875 13.140625 8.6875 27.390625 
z
" id="DejaVuSans-55"/>
     </defs>
     <g transform="translate(158.655197 52.14815)scale(0.07 -0.07)">
      <use xlink:href="#DejaVuSans-55"/>
      <use x="73.193359" xlink:href="#DejaVuSans-6e"/>
      <use x="136.572266" xlink:href="#DejaVuSans-69"/>
      <use x="164.355469" xlink:href="#DejaVuSans-74"/>
      <use x="203.564453" xlink:href="#DejaVuSans-65"/>
      <use x="265.087891" xlink:href="#DejaVuSans-64"/>
     </g>
    </g>
    <g clip-path="url(#p3dda1c8db4)">
     <!-- Kingdom -->
     <defs>
      <path d="M 9.8125 72.90625 
L 19.671875 72.90625 
L 19.671875 42.09375 
L 52.390625 72.90625 
L 65.09375 72.90625 
L 28.90625 38.921875 
L 67.671875 0 
L 54.6875 0 
L 19.671875 35.109375 
L 19.671875 0 
L 9.8125 0 
z
" id="DejaVuSans-4b"/>
      <path d="M 30.609375 48.390625 
Q 23.390625 48.390625 19.1875 42.75 
Q 14.984375 37.109375 14.984375 27.296875 
Q 14.984375 17.484375 19.15625 11.84375 
Q 23.34375 6.203125 30.609375 6.203125 
Q 37.796875 6.203125 41.984375 11.859375 
Q 46.1875 17.53125 46.1875 27.296875 
Q 46.1875 37.015625 41.984375 42.703125 
Q 37.796875 48.390625 30.609375 48.390625 
z
M 30.609375 56 
Q 42.328125 56 49.015625 48.375 
Q 55.71875 40.765625 55.71875 27.296875 
Q 55.71875 13.875 49.015625 6.21875 
Q 42.328125 -1.421875 30.609375 -1.421875 
Q 18.84375 -1.421875 12.171875 6.21875 
Q 5.515625 13.875 5.515625 27.296875 
Q 5.515625 40.765625 12.171875 48.375 
Q 18.84375 56 30.609375 56 
z
" id="DejaVuSans-6f"/>
     </defs>
     <g transform="translate(154.674494 59.986618)scale(0.07 -0.07)">
      <use xlink:href="#DejaVuSans-4b"/>
      <use x="65.576172" xlink:href="#DejaVuSans-69"/>
      <use x="93.359375" xlink:href="#DejaVuSans-6e"/>
      <use x="156.738281" xlink:href="#DejaVuSans-67"/>
      <use x="220.214844" xlink:href="#DejaVuSans-64"/>
      <use x="283.691406" xlink:href="#DejaVuSans-6f"/>
      <use x="344.873047" xlink:href="#DejaVuSans-6d"/>
     </g>
    </g>
   </g>
   <g id="text_10">
    <g clip-path="url(#p3dda1c8db4)">
     <!-- France -->
     <defs>
      <path d="M 9.8125 72.90625 
L 51.703125 72.90625 
L 51.703125 64.59375 
L 19.671875 64.59375 
L 19.671875 43.109375 
L 48.578125 43.109375 
L 48.578125 34.8125 
L 19.671875 34.8125 
L 19.671875 0 
L 9.8125 0 
z
" id="DejaVuSans-46"/>
      <path d="M 48.78125 52.59375 
L 48.78125 44.1875 
Q 44.96875 46.296875 41.140625 47.34375 
Q 37.3125 48.390625 33.40625 48.390625 
Q 24.65625 48.390625 19.8125 42.84375 
Q 14.984375 37.3125 14.984375 27.296875 
Q 14.984375 17.28125 19.8125 11.734375 
Q 24.65625 6.203125 33.40625 6.203125 
Q 37.3125 6.203125 41.140625 7.25 
Q 44.96875 8.296875 48.78125 10.40625 
L 48.78125 2.09375 
Q 45.015625 0.34375 40.984375 -0.53125 
Q 36.96875 -1.421875 32.421875 -1.421875 
Q 20.0625 -1.421875 12.78125 6.34375 
Q 5.515625 14.109375 5.515625 27.296875 
Q 5.515625 40.671875 12.859375 48.328125 
Q 20.21875 56 33.015625 56 
Q 37.15625 56 41.109375 55.140625 
Q 45.0625 54.296875 48.78125 52.59375 
z
" id="DejaVuSans-63"/>
     </defs>
     <g transform="translate(121.294707 74.980013)scale(0.07 -0.07)">
      <use xlink:href="#DejaVuSans-46"/>
      <use x="57.410156" xlink:href="#DejaVuSans-72"/>
      <use x="98.523438" xlink:href="#DejaVuSans-61"/>
      <use x="159.802734" xlink:href="#DejaVuSans-6e"/>
      <use x="223.181641" xlink:href="#DejaVuSans-63"/>
      <use x="278.162109" xlink:href="#DejaVuSans-65"/>
     </g>
    </g>
   </g>
   <g id="text_11">
    <g clip-path="url(#p3dda1c8db4)">
     <!-- Russia -->
     <defs>
      <path d="M 44.390625 34.1875 
Q 47.5625 33.109375 50.5625 29.59375 
Q 53.5625 26.078125 56.59375 19.921875 
L 66.609375 0 
L 56 0 
L 46.6875 18.703125 
Q 43.0625 26.03125 39.671875 28.421875 
Q 36.28125 30.8125 30.421875 30.8125 
L 19.671875 30.8125 
L 19.671875 0 
L 9.8125 0 
L 9.8125 72.90625 
L 32.078125 72.90625 
Q 44.578125 72.90625 50.734375 67.671875 
Q 56.890625 62.453125 56.890625 51.90625 
Q 56.890625 45.015625 53.6875 40.46875 
Q 50.484375 35.9375 44.390625 34.1875 
z
M 19.671875 64.796875 
L 19.671875 38.921875 
L 32.078125 38.921875 
Q 39.203125 38.921875 42.84375 42.21875 
Q 46.484375 45.515625 46.484375 51.90625 
Q 46.484375 58.296875 42.84375 61.546875 
Q 39.203125 64.796875 32.078125 64.796875 
z
" id="DejaVuSans-52"/>
     </defs>
     <g transform="translate(93.403185 99.627423)scale(0.07 -0.07)">
      <use xlink:href="#DejaVuSans-52"/>
      <use x="69.419922" xlink:href="#DejaVuSans-75"/>
      <use x="132.798828" xlink:href="#DejaVuSans-73"/>
      <use x="184.898438" xlink:href="#DejaVuSans-73"/>
      <use x="236.998047" xlink:href="#DejaVuSans-69"/>
      <use x="264.78125" xlink:href="#DejaVuSans-61"/>
     </g>
    </g>
   </g>
   <g id="text_12">
    <g clip-path="url(#p3dda1c8db4)">
     <!-- New -->
     <defs>
      <path d="M 4.203125 54.6875 
L 13.1875 54.6875 
L 24.421875 12.015625 
L 35.59375 54.6875 
L 46.1875 54.6875 
L 57.421875 12.015625 
L 68.609375 54.6875 
L 77.59375 54.6875 
L 63.28125 0 
L 52.6875 0 
L 40.921875 44.828125 
L 29.109375 0 
L 18.5 0 
z
" id="DejaVuSans-77"/>
     </defs>
     <g transform="translate(79.346987 124.410712)scale(0.07 -0.07)">
      <use xlink:href="#DejaVuSans-4e"/>
      <use x="74.804688" xlink:href="#DejaVuSans-65"/>
      <use x="136.328125" xlink:href="#DejaVuSans-77"/>
     </g>
    </g>
    <g clip-path="url(#p3dda1c8db4)">
     <!-- Zealand -->
     <defs>
      <path d="M 5.609375 72.90625 
L 62.890625 72.90625 
L 62.890625 65.375 
L 16.796875 8.296875 
L 64.015625 8.296875 
L 64.015625 0 
L 4.5 0 
L 4.5 7.515625 
L 50.59375 64.59375 
L 5.609375 64.59375 
z
" id="DejaVuSans-5a"/>
     </defs>
     <g transform="translate(72.728159 132.249181)scale(0.07 -0.07)">
      <use xlink:href="#DejaVuSans-5a"/>
      <use x="68.505859" xlink:href="#DejaVuSans-65"/>
      <use x="130.029297" xlink:href="#DejaVuSans-61"/>
      <use x="191.308594" xlink:href="#DejaVuSans-6c"/>
      <use x="219.091797" xlink:href="#DejaVuSans-61"/>
      <use x="280.371094" xlink:href="#DejaVuSans-6e"/>
      <use x="343.75" xlink:href="#DejaVuSans-64"/>
     </g>
    </g>
   </g>
   <g id="text_13">
    <g clip-path="url(#p3dda1c8db4)">
     <!-- Japan -->
     <defs>
      <path d="M 9.8125 72.90625 
L 19.671875 72.90625 
L 19.671875 5.078125 
Q 19.671875 -8.109375 14.671875 -14.0625 
Q 9.671875 -20.015625 -1.421875 -20.015625 
L -5.171875 -20.015625 
L -5.171875 -11.71875 
L -2.09375 -11.71875 
Q 4.4375 -11.71875 7.125 -8.046875 
Q 9.8125 -4.390625 9.8125 5.078125 
z
" id="DejaVuSans-4a"/>
     </defs>
     <g transform="translate(71.136431 159.131572)scale(0.07 -0.07)">
      <use xlink:href="#DejaVuSans-4a"/>
      <use x="29.492188" xlink:href="#DejaVuSans-61"/>
      <use x="90.771484" xlink:href="#DejaVuSans-70"/>
      <use x="154.248047" xlink:href="#DejaVuSans-61"/>
      <use x="215.527344" xlink:href="#DejaVuSans-6e"/>
     </g>
    </g>
   </g>
   <g id="text_14">
    <g clip-path="url(#p3dda1c8db4)">
     <!-- Philippines -->
     <g transform="translate(68.124565 189.933171)scale(0.07 -0.07)">
      <use xlink:href="#DejaVuSans-50"/>
      <use x="60.302734" xlink:href="#DejaVuSans-68"/>
      <use x="123.681641" xlink:href="#DejaVuSans-69"/>
      <use x="151.464844" xlink:href="#DejaVuSans-6c"/>
      <use x="179.248047" xlink:href="#DejaVuSans-69"/>
      <use x="207.03125" xlink:href="#DejaVuSans-70"/>
      <use x="270.507812" xlink:href="#DejaVuSans-70"/>
      <use x="333.984375" xlink:href="#DejaVuSans-69"/>
      <use x="361.767578" xlink:href="#DejaVuSans-6e"/>
      <use x="425.146484" xlink:href="#DejaVuSans-65"/>
      <use x="486.669922" xlink:href="#DejaVuSans-73"/>
     </g>
    </g>
   </g>
   <g id="text_15">
    <g clip-path="url(#p3dda1c8db4)">
     <!-- China -->
     <defs>
      <path d="M 64.40625 67.28125 
L 64.40625 56.890625 
Q 59.421875 61.53125 53.78125 63.8125 
Q 48.140625 66.109375 41.796875 66.109375 
Q 29.296875 66.109375 22.65625 58.46875 
Q 16.015625 50.828125 16.015625 36.375 
Q 16.015625 21.96875 22.65625 14.328125 
Q 29.296875 6.6875 41.796875 6.6875 
Q 48.140625 6.6875 53.78125 8.984375 
Q 59.421875 11.28125 64.40625 15.921875 
L 64.40625 5.609375 
Q 59.234375 2.09375 53.4375 0.328125 
Q 47.65625 -1.421875 41.21875 -1.421875 
Q 24.65625 -1.421875 15.125 8.703125 
Q 5.609375 18.84375 5.609375 36.375 
Q 5.609375 53.953125 15.125 64.078125 
Q 24.65625 74.21875 41.21875 74.21875 
Q 47.75 74.21875 53.53125 72.484375 
Q 59.328125 70.75 64.40625 67.28125 
z
" id="DejaVuSans-43"/>
     </defs>
     <g transform="translate(94.817404 218.635691)scale(0.07 -0.07)">
      <use xlink:href="#DejaVuSans-43"/>
      <use x="69.824219" xlink:href="#DejaVuSans-68"/>
      <use x="133.203125" xlink:href="#DejaVuSans-69"/>
      <use x="160.986328" xlink:href="#DejaVuSans-6e"/>
      <use x="224.365234" xlink:href="#DejaVuSans-61"/>
     </g>
    </g>
   </g>
   <g id="text_16">
    <g clip-path="url(#p3dda1c8db4)">
     <!-- Canada -->
     <g transform="translate(119.865165 243.283105)scale(0.07 -0.07)">
      <use xlink:href="#DejaVuSans-43"/>
      <use x="69.824219" xlink:href="#DejaVuSans-61"/>
      <use x="131.103516" xlink:href="#DejaVuSans-6e"/>
      <use x="194.482422" xlink:href="#DejaVuSans-61"/>
      <use x="255.761719" xlink:href="#DejaVuSans-64"/>
      <use x="319.238281" xlink:href="#DejaVuSans-61"/>
     </g>
    </g>
   </g>
   <g id="text_17">
    <g clip-path="url(#p3dda1c8db4)">
     <!-- Indonesia -->
     <g transform="translate(153.228583 262.195748)scale(0.07 -0.07)">
      <use xlink:href="#DejaVuSans-49"/>
      <use x="29.492188" xlink:href="#DejaVuSans-6e"/>
      <use x="92.871094" xlink:href="#DejaVuSans-64"/>
      <use x="156.347656" xlink:href="#DejaVuSans-6f"/>
      <use x="217.529297" xlink:href="#DejaVuSans-6e"/>
      <use x="280.908203" xlink:href="#DejaVuSans-65"/>
      <use x="342.431641" xlink:href="#DejaVuSans-73"/>
      <use x="394.53125" xlink:href="#DejaVuSans-69"/>
      <use x="422.314453" xlink:href="#DejaVuSans-61"/>
     </g>
    </g>
   </g>
   <g id="text_18">
    <g clip-path="url(#p3dda1c8db4)">
     <!-- Ireland -->
     <g transform="translate(201.027603 274.084724)scale(0.07 -0.07)">
      <use xlink:href="#DejaVuSans-49"/>
      <use x="29.492188" xlink:href="#DejaVuSans-72"/>
      <use x="70.574219" xlink:href="#DejaVuSans-65"/>
      <use x="132.097656" xlink:href="#DejaVuSans-6c"/>
      <use x="159.880859" xlink:href="#DejaVuSans-61"/>
      <use x="221.160156" xlink:href="#DejaVuSans-6e"/>
      <use x="284.539062" xlink:href="#DejaVuSans-64"/>
     </g>
    </g>
   </g>
   <g id="text_19">
    <g clip-path="url(#p3dda1c8db4)">
     <!-- Israel -->
     <g transform="translate(249.845707 278.139827)scale(0.07 -0.07)">
      <use xlink:href="#DejaVuSans-49"/>
      <use x="29.492188" xlink:href="#DejaVuSans-73"/>
      <use x="81.591797" xlink:href="#DejaVuSans-72"/>
      <use x="122.705078" xlink:href="#DejaVuSans-61"/>
      <use x="183.984375" xlink:href="#DejaVuSans-65"/>
      <use x="245.507812" xlink:href="#DejaVuSans-6c"/>
     </g>
    </g>
   </g>
   <g id="text_20">
    <g clip-path="url(#p3dda1c8db4)">
     <!-- Afghanistan -->
     <defs>
      <path d="M 37.109375 75.984375 
L 37.109375 68.5 
L 28.515625 68.5 
Q 23.6875 68.5 21.796875 66.546875 
Q 19.921875 64.59375 19.921875 59.515625 
L 19.921875 54.6875 
L 34.71875 54.6875 
L 34.71875 47.703125 
L 19.921875 47.703125 
L 19.921875 0 
L 10.890625 0 
L 10.890625 47.703125 
L 2.296875 47.703125 
L 2.296875 54.6875 
L 10.890625 54.6875 
L 10.890625 58.5 
Q 10.890625 67.625 15.140625 71.796875 
Q 19.390625 75.984375 28.609375 75.984375 
z
" id="DejaVuSans-66"/>
     </defs>
     <g transform="translate(284.655059 274.084717)scale(0.07 -0.07)">
      <use xlink:href="#DejaVuSans-41"/>
      <use x="68.361328" xlink:href="#DejaVuSans-66"/>
      <use x="103.566406" xlink:href="#DejaVuSans-67"/>
      <use x="167.042969" xlink:href="#DejaVuSans-68"/>
      <use x="230.421875" xlink:href="#DejaVuSans-61"/>
      <use x="291.701172" xlink:href="#DejaVuSans-6e"/>
      <use x="355.080078" xlink:href="#DejaVuSans-69"/>
      <use x="382.863281" xlink:href="#DejaVuSans-73"/>
      <use x="434.962891" xlink:href="#DejaVuSans-74"/>
      <use x="474.171875" xlink:href="#DejaVuSans-61"/>
      <use x="535.451172" xlink:href="#DejaVuSans-6e"/>
     </g>
    </g>
   </g>
   <g id="text_21">
    <g clip-path="url(#p3dda1c8db4)">
     <!-- Iran -->
     <g transform="translate(341.832979 262.195748)scale(0.07 -0.07)">
      <use xlink:href="#DejaVuSans-49"/>
      <use x="29.492188" xlink:href="#DejaVuSans-72"/>
      <use x="70.605469" xlink:href="#DejaVuSans-61"/>
      <use x="131.884766" xlink:href="#DejaVuSans-6e"/>
     </g>
    </g>
   </g>
   <g id="text_22">
    <g clip-path="url(#p3dda1c8db4)">
     <!-- Saudi -->
     <g transform="translate(375.859178 239.363892)scale(0.07 -0.07)">
      <use xlink:href="#DejaVuSans-53"/>
      <use x="63.476562" xlink:href="#DejaVuSans-61"/>
      <use x="124.755859" xlink:href="#DejaVuSans-75"/>
      <use x="188.134766" xlink:href="#DejaVuSans-64"/>
      <use x="251.611328" xlink:href="#DejaVuSans-69"/>
     </g>
    </g>
    <g clip-path="url(#p3dda1c8db4)">
     <!-- Arabia -->
     <defs>
      <path d="M 48.6875 27.296875 
Q 48.6875 37.203125 44.609375 42.84375 
Q 40.53125 48.484375 33.40625 48.484375 
Q 26.265625 48.484375 22.1875 42.84375 
Q 18.109375 37.203125 18.109375 27.296875 
Q 18.109375 17.390625 22.1875 11.75 
Q 26.265625 6.109375 33.40625 6.109375 
Q 40.53125 6.109375 44.609375 11.75 
Q 48.6875 17.390625 48.6875 27.296875 
z
M 18.109375 46.390625 
Q 20.953125 51.265625 25.265625 53.625 
Q 29.59375 56 35.59375 56 
Q 45.5625 56 51.78125 48.09375 
Q 58.015625 40.1875 58.015625 27.296875 
Q 58.015625 14.40625 51.78125 6.484375 
Q 45.5625 -1.421875 35.59375 -1.421875 
Q 29.59375 -1.421875 25.265625 0.953125 
Q 20.953125 3.328125 18.109375 8.203125 
L 18.109375 0 
L 9.078125 0 
L 9.078125 75.984375 
L 18.109375 75.984375 
z
" id="DejaVuSans-62"/>
     </defs>
     <g transform="translate(374.321365 247.20236)scale(0.07 -0.07)">
      <use xlink:href="#DejaVuSans-41"/>
      <use x="68.408203" xlink:href="#DejaVuSans-72"/>
      <use x="109.521484" xlink:href="#DejaVuSans-61"/>
      <use x="170.800781" xlink:href="#DejaVuSans-62"/>
      <use x="234.277344" xlink:href="#DejaVuSans-69"/>
      <use x="262.060547" xlink:href="#DejaVuSans-61"/>
     </g>
    </g>
   </g>
   <g id="text_23">
    <g clip-path="url(#p3dda1c8db4)">
     <!-- Spain -->
     <g transform="translate(404.228132 218.635716)scale(0.07 -0.07)">
      <use xlink:href="#DejaVuSans-53"/>
      <use x="63.476562" xlink:href="#DejaVuSans-70"/>
      <use x="126.953125" xlink:href="#DejaVuSans-61"/>
      <use x="188.232422" xlink:href="#DejaVuSans-69"/>
      <use x="216.015625" xlink:href="#DejaVuSans-6e"/>
     </g>
    </g>
   </g>
   <g id="text_24">
    <g clip-path="url(#p3dda1c8db4)">
     <!-- West -->
     <defs>
      <path d="M 3.328125 72.90625 
L 13.28125 72.90625 
L 28.609375 11.28125 
L 43.890625 72.90625 
L 54.984375 72.90625 
L 70.3125 11.28125 
L 85.59375 72.90625 
L 95.609375 72.90625 
L 77.296875 0 
L 64.890625 0 
L 49.515625 63.28125 
L 33.984375 0 
L 21.578125 0 
z
" id="DejaVuSans-57"/>
     </defs>
     <g transform="translate(423.033961 186.013908)scale(0.07 -0.07)">
      <use xlink:href="#DejaVuSans-57"/>
      <use x="98.798828" xlink:href="#DejaVuSans-65"/>
      <use x="160.322266" xlink:href="#DejaVuSans-73"/>
      <use x="212.421875" xlink:href="#DejaVuSans-74"/>
     </g>
    </g>
    <g clip-path="url(#p3dda1c8db4)">
     <!-- Bank -->
     <g transform="translate(423.049821 193.852377)scale(0.07 -0.07)">
      <use xlink:href="#DejaVuSans-42"/>
      <use x="68.603516" xlink:href="#DejaVuSans-61"/>
      <use x="129.882812" xlink:href="#DejaVuSans-6e"/>
      <use x="193.261719" xlink:href="#DejaVuSans-6b"/>
     </g>
    </g>
   </g>
  </g>
 </g>
 <defs>
  <clipPath id="p3dda1c8db4">
   <rect height="288" width="432" x="43.411094" y="13.2"/>
  </clipPath>
 </defs>
</svg>
